<?xml version="1.0" standalone="no"?>
<!DOCTYPE svg PUBLIC "-//W3C//DTD SVG 20010904//EN"
 "http://www.w3.org/TR/2001/REC-SVG-20010904/DTD/svg10.dtd">
<svg version="1.0" xmlns="http://www.w3.org/2000/svg"
 width="587.000000pt" height="591.000000pt" viewBox="0 0 587.000000 591.000000"
 preserveAspectRatio="xMidYMid meet">

<g transform="translate(0.000000,591.000000) scale(0.100000,-0.100000)"
fill="#99aab5" stroke="none"> 
<path d="M1182 5776 c-13 -6 -25 -21 -29 -34 -5 -21 -6 -21 -18 -5 -10 13 -16
15 -26 6 -8 -6 -33 -11 -57 -10 -51 0 -62 -8 -37 -27 17 -12 21 -12 32 3 11
15 12 15 13 -1 0 -9 7 -21 15 -25 8 -5 15 -20 16 -33 0 -29 -18 -103 -20 -77
-1 20 -31 23 -49 5 -10 -10 -17 -8 -34 9 -19 19 -23 20 -33 7 -13 -19 -65 -9
-65 12 0 8 -4 14 -10 14 -13 0 -13 -17 1 -26 7 -4 1 -16 -16 -34 -25 -26 -29
-27 -53 -14 -35 18 -62 18 -62 -1 0 -18 -40 -29 -72 -20 -14 4 -18 3 -10 -2 9
-7 8 -14 -7 -30 -24 -26 -18 -33 28 -33 l36 -1 -30 -13 c-16 -7 -38 -11 -47
-8 -10 2 -20 -3 -24 -12 -5 -12 -10 -14 -19 -6 -9 8 -15 8 -20 0 -10 -16 4
-30 23 -24 16 5 16 5 -1 -9 -9 -8 -17 -20 -17 -27 0 -9 -5 -8 -18 3 -25 22
-41 21 -50 -3 -5 -14 -11 -17 -22 -10 -11 7 -10 12 10 28 l25 20 -28 -5 c-28
-6 -35 5 -16 24 8 8 8 13 0 17 -6 4 -11 12 -11 18 0 7 4 7 13 -1 8 -6 17 -8
21 -3 4 4 12 -1 17 -11 12 -20 49 -23 49 -3 0 8 -14 17 -30 21 -23 5 -29 11
-25 24 3 10 -3 25 -14 35 -19 17 -19 18 4 42 12 13 27 24 32 24 6 0 13 9 16
20 6 25 -7 26 -31 3 -69 -65 -80 -73 -95 -67 -20 7 -23 24 -4 24 22 0 58 45
51 63 -6 17 -12 19 -67 20 -15 1 -27 5 -27 10 0 11 -41 -2 -61 -19 -13 -12
-19 -11 -37 2 -12 8 -20 20 -17 25 4 5 -2 9 -12 9 -11 0 -24 5 -30 11 -9 9
-19 6 -42 -10 -33 -24 -40 -41 -17 -41 8 0 16 -10 18 -22 4 -28 22 -33 43 -11
22 22 46 26 38 7 -3 -8 -8 -12 -11 -9 -3 2 -11 -4 -19 -15 -20 -28 -69 -27
-84 2 -10 18 -13 19 -17 8 -3 -8 -11 -22 -18 -31 -14 -15 -58 -208 -50 -217 8
-7 26 9 26 24 0 8 4 14 8 14 17 0 21 -13 9 -32 -9 -16 -9 -22 1 -25 15 -6 16
-30 2 -35 -14 -4 -39 -76 -40 -113 0 -16 -5 -37 -10 -45 -10 -16 -13 -9 -11
30 1 14 -4 33 -11 43 -11 15 -13 13 -13 -20 0 -32 -4 -38 -20 -36 -11 1 -14 0
-7 -3 10 -5 10 -9 2 -19 -7 -8 -10 -22 -7 -32 3 -14 7 -12 17 12 10 22 14 26
17 13 2 -9 -3 -30 -11 -47 -21 -40 -20 -53 5 -75 16 -14 20 -25 15 -48 -4 -22
0 -40 15 -64 11 -19 22 -34 25 -34 2 0 9 20 15 45 6 25 15 45 20 45 14 0 10
-58 -4 -67 -26 -15 -27 -51 -1 -68 13 -8 24 -22 24 -29 0 -14 92 -86 110 -86
6 0 10 -4 10 -10 0 -5 14 -10 30 -10 17 0 30 -4 30 -10 0 -5 11 -10 25 -10 14
0 25 5 25 10 0 6 5 10 11 10 5 0 8 -4 4 -9 -3 -6 1 -16 8 -23 8 -7 12 -20 9
-30 -3 -12 1 -18 12 -18 9 0 16 -7 16 -16 0 -9 9 -18 20 -21 11 -3 20 -10 20
-15 0 -6 7 -8 15 -4 9 3 15 0 15 -9 0 -10 10 -15 30 -15 20 0 30 -5 30 -15 0
-8 -4 -15 -10 -15 -5 0 -10 -7 -10 -16 0 -11 6 -14 20 -9 23 7 28 -13 8 -34
-11 -10 -8 -16 11 -32 19 -16 21 -22 11 -34 -18 -22 8 -29 81 -22 53 5 58 3
42 -9 -10 -7 -23 -14 -29 -14 -7 0 -22 -8 -35 -18 l-22 -19 34 -7 34 -7 -27
-17 c-33 -20 -36 -32 -8 -32 11 0 20 -4 20 -10 0 -5 -11 -10 -25 -10 -14 0
-25 -4 -25 -9 0 -14 31 -19 58 -9 13 4 42 4 66 -2 31 -7 55 -5 91 5 26 8 60
14 74 14 l26 -1 -25 -7 c-14 -4 -40 -11 -57 -15 -35 -9 -35 -26 0 -26 16 0 18
-3 9 -12 -7 -7 -39 -13 -72 -14 -64 -2 -80 -8 -80 -29 0 -18 99 -12 145 9 17
7 55 16 85 19 l55 5 -45 -20 c-38 -18 -42 -22 -25 -28 16 -6 14 -8 -15 -12
-19 -3 -40 -2 -46 3 -5 5 -34 2 -65 -6 -29 -8 -72 -15 -94 -15 l-40 -1 24 -19
23 -20 -23 -9 c-22 -8 -22 -10 -6 -16 10 -4 28 -3 40 3 44 21 58 22 64 5 4 -9
1 -19 -5 -21 -6 -2 -26 -17 -43 -33 l-31 -29 29 0 c17 0 52 7 79 15 27 8 54
15 59 15 13 0 -37 -39 -50 -40 -27 0 -94 -47 -110 -77 -22 -41 -13 -55 15 -22
17 19 24 21 38 12 13 -8 26 -6 57 11 22 11 46 29 53 39 7 9 19 17 26 17 8 0
19 7 26 15 18 22 32 18 20 -5 -6 -11 -17 -20 -24 -20 -19 0 -47 -46 -39 -65 5
-15 3 -15 -15 -4 -27 17 -41 3 -16 -16 15 -11 16 -15 4 -15 -19 -1 -60 -35
-60 -50 0 -7 7 -10 15 -6 8 3 15 1 15 -4 0 -6 -9 -10 -20 -10 -22 0 -26 -10
-9 -27 7 -7 2 -17 -18 -33 -28 -22 -28 -22 -3 -15 14 4 31 12 38 17 29 24 8
-9 -33 -50 -41 -40 -54 -62 -40 -62 3 0 28 23 56 50 27 28 53 50 56 50 3 0 11
7 18 17 7 9 17 13 23 9 17 -10 15 -26 -3 -26 -17 0 -20 -16 -6 -25 13 -7 34
32 25 46 -4 6 5 21 20 34 14 12 23 25 19 29 -3 3 1 6 11 6 10 0 14 5 10 12 -4
6 -3 8 3 5 5 -4 16 5 23 18 7 14 17 25 22 25 5 0 6 9 3 21 -5 15 -2 22 14 26
12 3 21 10 21 16 0 6 2 8 5 6 11 -11 -17 -76 -45 -106 -17 -18 -28 -33 -24
-33 4 0 -3 -11 -16 -25 -13 -14 -21 -28 -17 -31 4 -4 -3 -20 -14 -36 -12 -16
-19 -32 -16 -35 9 -8 37 23 37 40 0 9 4 17 8 19 5 2 31 32 58 68 69 91 67 90
88 108 10 9 24 23 31 30 8 6 18 12 24 12 6 0 8 7 5 15 -4 9 3 19 20 26 14 7
26 16 26 20 0 5 9 13 19 19 15 7 19 7 17 -4 -2 -17 -31 -46 -45 -46 -13 0 -63
-96 -59 -113 3 -14 -33 -97 -42 -97 -4 0 -12 -11 -18 -25 -6 -14 -16 -25 -22
-25 -10 0 -98 -86 -149 -147 -18 -20 -25 -24 -29 -14 -3 8 3 20 12 26 9 7 16
17 16 24 0 23 -159 -97 -160 -121 0 -19 33 -5 69 27 21 19 41 35 45 35 16 0 2
-28 -30 -60 -21 -20 -34 -41 -31 -51 3 -12 0 -15 -16 -11 -15 4 -19 1 -14 -10
3 -10 -3 -20 -18 -28 -27 -14 -50 -54 -41 -69 10 -16 36 -13 36 4 0 8 7 15 15
15 8 0 15 -9 15 -20 0 -11 -7 -20 -15 -20 -23 0 -37 -35 -25 -65 13 -34 13
-48 -1 -39 -6 3 -3 -5 6 -20 22 -33 41 -33 59 2 16 30 51 63 60 55 3 -3 -1
-12 -9 -20 -20 -19 -19 -37 0 -29 13 5 14 2 3 -17 -10 -19 -13 -20 -16 -4 -4
21 -22 23 -22 2 0 -9 -7 -18 -15 -21 -20 -8 -19 -24 2 -39 17 -13 17 -14 0
-32 -21 -24 -22 -33 -1 -33 17 0 17 -10 -2 -92 -4 -18 -2 -28 5 -28 6 0 12 9
13 20 0 11 1 26 2 33 1 6 8 17 15 23 13 10 12 15 -3 39 -10 15 -14 30 -10 33
4 4 9 1 11 -6 4 -10 8 -10 19 -1 11 9 14 9 14 0 0 -7 5 -9 10 -6 6 4 8 9 6 13
-2 4 7 21 21 37 l25 30 -7 -30 c-3 -16 -17 -46 -30 -65 -27 -41 -49 -105 -41
-119 4 -5 1 -11 -6 -13 -6 -2 -9 -12 -5 -21 5 -15 10 -14 33 8 20 19 30 22 35
13 4 -7 3 -16 -3 -19 -6 -4 -8 -20 -5 -38 5 -23 3 -31 -8 -31 -9 0 -15 -9 -15
-21 0 -17 3 -19 14 -10 11 9 15 9 19 -1 2 -7 7 3 11 22 4 19 21 62 36 95 16
33 32 69 35 79 3 10 8 16 12 12 7 -7 -25 -124 -40 -143 -6 -9 -5 -18 2 -27 6
-7 9 -21 5 -30 -3 -9 -1 -16 5 -16 6 0 11 -7 11 -16 0 -24 -19 -6 -30 29 -9
30 -10 28 -6 -16 3 -35 0 -47 -8 -44 -16 6 -36 -47 -25 -64 6 -10 10 -4 15 19
4 18 12 31 18 29 11 -4 16 -87 5 -87 -4 0 -7 -10 -8 -22 0 -13 -3 -50 -7 -83
-5 -49 -3 -63 10 -74 11 -9 13 -18 6 -30 -5 -9 -5 -23 -1 -30 8 -12 24 18 34
64 3 11 5 2 6 -20 0 -22 -3 -56 -9 -74 -8 -30 -7 -38 10 -53 11 -10 20 -30 20
-43 0 -13 5 -27 10 -30 6 -3 10 -1 10 4 0 6 5 11 12 11 9 0 9 -3 0 -12 -14
-14 -16 -42 -2 -33 5 3 10 -3 10 -15 0 -26 25 -76 42 -84 10 -5 10 -7 1 -12
-15 -6 -18 -60 -4 -68 4 -3 6 -16 4 -28 -5 -25 44 -306 56 -323 4 -5 8 -41 10
-80 2 -38 12 -114 22 -169 11 -54 18 -104 15 -111 -2 -7 -1 -29 4 -49 4 -20 4
-36 0 -36 -5 0 -5 -12 -1 -27 9 -34 7 -66 -14 -248 -19 -159 -33 -201 -72
-216 -16 -7 -37 -15 -48 -20 -11 -4 -33 -10 -50 -12 -76 -12 -96 -22 -160 -78
-27 -24 -35 -39 -35 -64 0 -18 -6 -35 -12 -38 -7 -2 -10 -8 -6 -12 5 -5 19 -3
33 3 14 7 41 12 60 12 19 0 37 5 41 11 3 6 19 9 34 6 15 -3 49 1 75 9 80 24
154 15 177 -20 4 -6 5 -27 1 -46 -6 -34 -5 -35 14 -18 11 10 27 18 36 18 10 0
32 20 49 45 28 39 36 45 65 43 18 -1 35 1 39 4 3 4 10 73 15 155 11 193 17
240 40 287 11 22 19 47 19 56 0 9 6 30 13 46 8 16 19 40 25 54 10 23 11 21 11
-20 1 -42 2 -44 16 -23 8 12 21 48 29 80 8 32 15 47 15 33 1 -14 10 -52 21
-84 11 -33 20 -84 20 -115 0 -60 15 -125 33 -148 57 -71 101 -112 109 -101 5
9 8 5 8 -12 0 -14 7 -34 15 -44 8 -11 15 -27 15 -35 0 -18 49 -71 66 -71 7 0
15 8 17 18 3 10 5 6 6 -10 1 -19 6 -28 17 -28 9 0 18 -9 21 -20 3 -11 30 -31
67 -48 33 -17 76 -44 94 -61 47 -43 59 -48 134 -55 90 -7 133 -26 142 -62 10
-38 42 -71 80 -83 17 -5 92 -19 165 -31 74 -12 139 -24 145 -27 5 -3 82 -7
170 -8 89 -1 213 -5 276 -9 115 -7 132 -8 160 -4 57 6 140 -4 155 -18 9 -10
22 -13 33 -9 23 10 46 12 192 15 69 2 148 8 175 14 63 14 217 6 223 -11 7 -23
71 -15 97 11 16 16 27 20 34 13 7 -7 14 -7 23 0 13 10 397 9 444 -1 12 -2 33
2 47 9 14 7 45 16 68 20 54 9 79 24 72 43 -5 12 -3 12 16 0 17 -10 23 -10 29
-1 4 7 27 15 50 19 23 3 47 13 53 20 6 8 20 14 31 14 22 0 78 27 78 38 0 4 -9
18 -20 32 -26 33 -25 52 1 21 17 -21 23 -22 45 -12 19 8 24 16 19 31 -5 17 -2
20 24 20 25 0 31 4 31 21 0 11 5 17 10 14 6 -3 10 -1 10 4 0 6 6 11 14 11 8 0
20 14 28 30 14 32 23 38 31 18 6 -16 57 35 57 57 0 8 4 15 9 15 7 0 20 54 24
103 1 9 8 17 15 17 9 0 12 6 8 16 -4 10 1 25 11 36 16 18 16 20 1 29 -22 12
-58 84 -58 115 0 14 -5 24 -12 23 -26 -3 -39 1 -33 12 4 5 -5 28 -19 49 -14
22 -26 51 -26 64 0 14 -4 28 -10 31 -6 4 -5 13 3 26 10 17 9 22 -5 30 -20 11
-45 61 -52 101 -6 35 -15 50 -26 43 -5 -3 -11 -1 -15 5 -3 5 -1 10 6 10 6 0
-4 15 -23 33 -27 25 -37 44 -42 81 -11 74 7 74 29 1 15 -50 25 -67 41 -71 13
-3 29 -22 39 -45 20 -42 45 -71 45 -49 0 7 -11 34 -25 62 -27 53 -31 78 -15
78 6 0 10 -9 10 -20 0 -11 5 -20 10 -20 6 0 10 -7 10 -15 0 -13 2 -14 14 -3
10 9 11 17 4 26 -6 7 -12 30 -14 51 -2 21 -15 59 -29 84 -33 60 -32 80 1 31
15 -21 35 -45 46 -52 14 -10 16 -17 9 -26 -8 -9 -5 -18 9 -31 11 -10 20 -25
20 -33 0 -12 3 -12 15 -2 13 11 13 15 3 21 -11 7 -10 9 0 9 8 0 12 6 9 13 -2
6 -11 11 -21 9 -19 -3 -21 9 -4 26 9 9 9 12 0 12 -12 0 -62 46 -62 58 0 15
-49 63 -61 60 -7 -2 -15 5 -17 16 -3 13 0 16 10 10 7 -5 22 -10 33 -11 10 -2
22 -9 26 -15 4 -6 6 0 6 15 -1 14 -4 24 -6 22 -7 -7 -41 15 -41 27 0 7 4 7 14
-1 11 -9 13 -6 11 16 -3 36 -23 82 -49 112 l-21 24 21 -13 c12 -7 32 -30 45
-52 13 -21 27 -38 31 -38 5 0 8 -4 8 -10 0 -5 -7 -7 -16 -3 -14 5 -14 3 -2
-16 10 -17 14 -18 16 -6 4 16 32 21 32 5 0 -5 7 -10 15 -10 8 0 15 -4 15 -10
0 -5 10 -15 23 -21 21 -11 21 -11 -3 15 -18 20 -21 29 -12 35 9 6 7 14 -11 32
-13 13 -33 41 -46 62 -12 20 -29 37 -37 37 -8 0 -14 5 -14 10 0 6 -9 20 -20
32 -24 26 -25 38 -5 38 8 0 15 -6 15 -12 0 -9 3 -8 10 2 5 8 5 17 1 20 -5 3
-12 16 -16 30 -6 21 -3 20 21 -11 16 -20 35 -34 42 -31 8 2 10 -2 5 -15 -7
-17 -6 -17 19 -1 30 20 45 12 23 -12 -14 -16 -13 -19 9 -34 31 -20 36 -20 36
-1 0 8 -7 15 -16 15 -10 0 -13 6 -9 19 6 20 -18 46 -35 36 -5 -3 -10 1 -10 9
0 9 -5 16 -10 16 -6 0 -8 11 -4 25 5 19 3 24 -7 20 -10 -4 -15 5 -16 31 -1 19
-7 42 -14 50 -6 8 -9 18 -5 21 4 4 11 1 16 -7 16 -25 24 -1 9 27 -7 16 -15 31
-17 36 -2 4 1 7 7 7 6 0 11 -4 11 -10 0 -5 9 -19 20 -30 11 -11 20 -18 20 -15
0 11 -24 55 -30 55 -4 0 -25 21 -45 46 -31 38 -36 50 -27 64 8 14 7 22 -9 38
-10 12 -19 27 -19 34 0 7 -10 25 -22 39 -13 14 -27 32 -33 41 -41 63 -64 88
-99 107 -23 11 -46 21 -53 21 -7 0 -10 6 -7 14 3 8 -4 24 -15 35 -12 12 -21
25 -21 30 0 12 -43 22 -52 13 -4 -4 6 -22 22 -39 17 -18 30 -37 30 -43 0 -6 4
-8 10 -5 5 3 23 -23 40 -59 17 -36 43 -75 58 -88 32 -27 59 -63 29 -39 -28 22
-34 1 -7 -23 31 -27 55 -71 46 -85 -5 -7 -1 -9 8 -5 9 3 16 1 16 -4 0 -6 -13
-9 -30 -7 -34 5 -37 -1 -15 -32 10 -14 11 -23 4 -25 -7 -2 -1 -22 15 -52 14
-27 26 -60 26 -72 0 -13 4 -24 10 -24 5 0 7 -6 4 -13 -3 -8 2 -20 11 -27 8 -7
15 -20 15 -29 0 -9 6 -23 13 -30 8 -10 9 -15 1 -18 -6 -2 -9 -15 -6 -28 2 -14
0 -25 -6 -25 -14 0 -25 36 -16 51 4 7 0 9 -14 5 -12 -4 -26 -1 -36 9 -12 12
-16 13 -16 3 0 -7 -11 0 -25 16 -14 16 -25 32 -25 35 0 3 -14 20 -30 38 -17
18 -30 35 -30 39 0 4 -7 15 -16 25 -9 10 -14 25 -12 34 2 12 13 3 36 -30 18
-26 36 -45 39 -42 3 3 -5 20 -17 37 -12 17 -19 37 -16 46 8 20 -50 99 -60 82
-4 -6 -2 -14 4 -16 7 -2 12 -12 12 -22 0 -10 3 -20 8 -23 4 -2 2 -2 -5 -1 -6
2 -14 -2 -17 -9 -3 -7 -13 -2 -26 16 -12 15 -26 27 -32 27 -6 0 -5 -6 2 -15 7
-9 11 -18 8 -20 -7 -8 -58 53 -58 69 0 8 -4 18 -10 21 -6 3 -10 -4 -10 -17 -1
-21 -2 -21 -11 -5 -6 10 -12 31 -14 48 -4 29 -33 78 -47 79 -5 0 -8 7 -8 16 0
8 -4 13 -9 9 -6 -3 -4 -17 5 -33 7 -15 14 -35 14 -44 0 -10 6 -18 13 -18 8 0
8 -3 -2 -9 -12 -8 -12 -14 -1 -40 7 -18 11 -34 8 -36 -4 -4 -86 118 -132 196
-26 46 -66 90 -66 73 0 -5 -7 4 -15 20 -8 15 -15 34 -15 41 0 7 -13 27 -30 45
-16 18 -30 36 -30 40 0 5 -5 10 -12 12 -6 2 -13 15 -15 28 -2 13 -13 35 -25
47 -23 25 -43 31 -33 11 4 -7 -3 -2 -14 11 -12 13 -21 30 -21 38 0 26 -33 76
-79 121 -47 44 -68 54 -56 25 5 -10 13 -36 19 -58 6 -22 20 -54 31 -70 11 -17
25 -39 31 -50 7 -11 19 -19 27 -19 9 1 13 -4 10 -12 -3 -8 0 -21 7 -29 7 -9
10 -18 7 -22 -4 -3 -9 2 -13 11 -6 15 -34 23 -34 10 0 -9 118 -124 127 -124 4
0 17 -12 30 -26 13 -16 29 -24 37 -21 9 4 17 -1 21 -14 4 -10 10 -19 15 -19 4
0 6 -8 3 -18 -2 -10 6 -27 21 -41 30 -28 35 -15 7 16 -18 19 -18 33 -2 33 4 0
15 -17 26 -37 15 -27 17 -37 7 -41 -6 -2 -12 -8 -12 -13 0 -4 7 -6 15 -3 10 4
15 0 15 -12 0 -11 7 -32 15 -48 13 -25 13 -28 -1 -22 -9 3 -19 6 -23 6 -4 0
-13 16 -21 35 -14 36 -30 47 -30 20 0 -8 4 -23 9 -33 5 -9 12 -25 15 -34 3
-10 12 -15 23 -12 10 2 25 0 33 -6 13 -9 13 -11 0 -19 -9 -6 -19 -6 -27 1 -7
5 -19 8 -26 5 -9 -3 -20 8 -30 29 -19 40 -36 45 -29 9 2 -14 8 -25 12 -25 4 0
10 -9 13 -21 3 -12 12 -19 19 -17 15 5 47 -42 60 -88 5 -20 17 -34 31 -38 21
-6 21 -7 3 -17 -14 -9 -20 -8 -26 1 -10 16 -38 6 -47 -16 -3 -10 4 -26 21 -42
14 -15 26 -21 26 -14 0 6 -9 21 -21 33 -11 11 -18 23 -15 27 4 3 20 -11 37
-31 17 -20 37 -37 44 -37 24 0 55 -50 48 -78 -4 -18 -3 -23 7 -17 9 5 10 2 6
-13 -4 -12 -1 -26 8 -35 8 -8 12 -23 10 -35 -3 -11 -1 -23 5 -26 6 -4 11 -16
11 -26 0 -10 6 -25 14 -32 13 -14 66 -111 66 -123 0 -3 -6 -5 -13 -5 -7 0 -25
28 -41 62 -39 90 -45 100 -68 128 -14 16 -22 21 -25 13 -6 -17 -24 -17 -18 0
2 6 -24 34 -57 61 -57 46 -60 50 -42 63 16 12 17 15 4 23 -8 5 -11 13 -6 17 5
4 11 2 13 -4 3 -7 10 -13 16 -13 7 0 18 -9 25 -20 7 -11 8 -20 3 -20 -6 0 -13
5 -16 10 -8 13 -25 13 -25 -1 0 -13 61 -69 75 -69 5 0 17 5 25 10 12 8 11 12
-6 32 -33 36 -40 55 -11 29 23 -21 27 -22 27 -7 0 20 -47 66 -67 66 -20 0 -62
30 -74 52 -8 14 -7 24 3 35 11 14 10 15 -8 9 -17 -5 -23 0 -32 32 -6 21 -20
47 -31 57 -11 11 -40 40 -65 65 -26 25 -46 52 -46 60 0 9 11 2 26 -18 15 -18
44 -44 65 -58 22 -13 39 -30 39 -36 0 -11 76 -88 86 -88 11 0 1 31 -17 54 -11
14 -17 30 -14 36 3 6 -4 10 -18 10 -15 0 -27 7 -30 17 -4 10 -13 36 -21 58 -9
22 -16 48 -16 57 0 11 -5 15 -14 12 -9 -3 -17 3 -21 15 -3 11 -24 36 -46 54
-42 37 -48 47 -24 47 8 0 15 -5 15 -12 0 -6 3 -8 6 -5 13 13 -51 136 -72 140
-5 1 -8 8 -8 15 1 6 -2 12 -7 12 -5 0 -9 9 -9 20 0 11 -4 20 -9 20 -12 0 -33
55 -29 77 3 16 -50 78 -60 69 -6 -7 30 -56 42 -56 6 0 5 -4 -3 -9 -12 -8 -12
-12 -2 -24 18 -22 -3 -30 -23 -8 -9 10 -16 22 -15 27 3 15 -43 108 -57 117 -8
4 -14 15 -14 22 0 8 -5 15 -11 15 -5 0 -7 5 -4 10 4 6 21 -8 38 -29 31 -39 56
-48 65 -23 2 7 -5 12 -17 12 -23 0 -27 10 -11 26 7 7 -3 23 -33 50 -52 48 -81
89 -72 104 10 17 33 11 29 -7 -4 -19 32 -70 42 -60 4 3 -1 13 -10 22 -9 9 -16
25 -16 36 0 10 -9 24 -20 31 -11 7 -20 20 -20 30 0 20 -20 35 -21 16 0 -7 -5
1 -10 17 -6 19 -5 31 2 33 5 2 -2 19 -16 37 -14 19 -25 38 -25 43 0 13 -25 33
-32 26 -8 -7 22 -67 39 -77 10 -6 11 -12 4 -21 -10 -12 -1 -55 20 -98 14 -28
10 -32 -11 -13 -11 10 -20 25 -20 34 0 9 -12 39 -25 66 -14 28 -25 55 -25 62
0 6 -9 9 -22 5 -18 -4 -20 -2 -14 13 9 25 -41 70 -78 70 -21 0 -32 -8 -49 -40
-12 -22 -25 -41 -29 -43 -5 -2 -5 -15 -2 -28 3 -13 2 -30 -4 -37 -5 -6 -12
-24 -16 -39 -9 -38 -24 -35 -32 7 -8 42 -24 56 -24 21 0 -14 5 -26 10 -26 21
0 8 -30 -29 -69 -26 -27 -42 -37 -47 -30 -4 7 1 18 11 25 9 7 24 25 32 41 13
25 12 28 -8 44 -18 14 -20 18 -7 25 8 5 21 20 30 33 20 28 7 66 -24 74 -28 8
-13 26 15 20 29 -7 47 -31 47 -64 0 -14 7 -33 17 -40 15 -13 16 -11 11 14 -3
15 -1 27 3 27 5 0 9 9 9 19 0 10 7 22 16 25 9 3 14 13 10 21 -3 8 2 19 11 23
24 14 9 40 -29 50 -27 7 -33 13 -31 33 2 18 -7 31 -36 52 -22 15 -44 27 -49
27 -5 0 -13 7 -16 16 -5 13 -9 14 -21 4 -11 -9 -15 -9 -15 -1 0 6 -11 17 -25
23 -15 6 -25 20 -25 31 0 19 1 19 19 3 11 -10 26 -16 33 -14 8 3 5 10 -10 23
-12 11 -22 30 -22 43 0 12 -7 34 -16 47 -10 15 -12 25 -5 25 15 0 14 27 -1 33
-7 2 -10 8 -5 12 4 5 18 -2 32 -15 14 -13 25 -19 25 -14 0 5 5 2 10 -6 7 -11
12 -12 18 -4 4 7 15 8 30 3 30 -11 28 -23 -3 -17 -22 5 -24 3 -18 -21 3 -14
10 -34 14 -43 13 -25 11 -48 -5 -48 -9 0 -13 -9 -11 -25 1 -14 4 -27 6 -28 2
-1 28 -15 58 -31 l54 -29 -7 26 c-4 16 -2 27 7 30 9 3 9 7 -1 20 -10 12 -11
21 -3 36 6 11 8 27 5 35 -9 24 1 20 51 -24 72 -63 92 -52 25 14 -22 21 -37 42
-34 47 8 14 24 10 24 -6 0 -17 17 -20 22 -4 2 6 19 -3 37 -20 35 -33 51 -39
51 -19 0 6 13 -1 29 -16 18 -17 36 -26 45 -23 9 4 19 0 23 -7 10 -17 101 -71
134 -80 20 -6 17 -1 -16 29 -22 20 -55 42 -73 50 -22 10 -31 19 -26 27 4 7 4
10 0 7 -4 -4 -25 11 -46 32 -22 22 -45 39 -52 39 -9 0 -9 3 0 12 9 9 21 3 52
-27 42 -41 47 -41 28 0 -12 27 -98 92 -98 75 0 -17 -28 -11 -39 8 -9 16 -10
16 -16 0 -5 -14 -12 -11 -42 18 -19 19 -40 31 -45 28 -10 -7 28 -43 45 -44 4
0 7 -6 7 -13 0 -7 12 -21 27 -32 43 -31 65 -56 58 -63 -4 -4 -15 3 -25 16 -12
15 -34 24 -65 28 -26 4 -51 14 -58 24 -7 9 -21 22 -32 28 -15 9 -16 11 -4 12
8 0 24 -7 35 -15 22 -17 44 -19 44 -4 0 5 -13 15 -30 20 -17 6 -30 17 -30 24
0 8 -11 26 -24 42 -13 15 -26 37 -30 49 -7 24 -62 85 -91 102 -17 10 -18 13
-5 22 19 13 45 8 45 -8 0 -15 24 -32 44 -32 11 0 9 4 -5 15 -18 14 -18 14 4
15 13 0 34 -11 48 -25 14 -14 30 -25 36 -25 6 0 33 -23 59 -51 31 -33 53 -49
63 -46 9 4 18 2 22 -4 3 -6 12 -8 20 -5 7 3 16 0 20 -6 4 -7 3 -8 -4 -4 -7 4
-12 2 -12 -4 0 -7 7 -9 16 -6 9 3 29 -3 45 -15 37 -26 38 -11 2 23 -36 32
-129 88 -148 88 -8 0 -15 5 -15 11 0 13 -19 32 -49 48 -12 7 -20 15 -17 18 3
3 29 -10 58 -30 29 -19 77 -49 106 -66 29 -17 58 -35 65 -41 60 -49 78 -60 97
-60 11 0 18 5 15 10 -3 6 -14 10 -23 10 -10 0 -25 8 -34 19 -15 17 -14 18 11
17 14 -1 31 -4 36 -7 35 -19 96 -32 107 -21 8 8 3 13 -18 17 -48 11 -56 14
-50 24 9 14 -36 39 -103 57 -34 10 -61 21 -61 26 0 4 -5 8 -11 8 -6 0 -28 13
-48 29 -44 35 -121 72 -133 65 -7 -5 -36 3 -130 38 -16 6 -28 15 -28 20 0 14
-22 33 -59 52 -38 20 -228 24 -263 5 -17 -9 -23 -8 -30 5 -5 9 -14 14 -19 10
-15 -9 -61 5 -54 16 4 6 -1 13 -10 16 -8 4 -14 14 -13 23 2 10 -3 15 -14 15
-10 -1 -18 4 -18 11 0 7 -13 15 -29 18 -27 6 -42 27 -45 67 -1 8 -9 14 -19 14
-9 -1 -17 4 -17 12 0 10 -13 14 -45 14 -41 0 -50 5 -89 45 -25 25 -48 45 -52
45 -21 0 -74 -26 -74 -36 0 -6 -7 -17 -16 -25 -13 -10 -17 -10 -26 2 -8 12 -9
11 -5 -2 8 -24 -29 -80 -48 -73 -10 4 -15 0 -15 -10 0 -20 -30 -21 -56 -1 -10
8 -27 15 -37 15 -11 0 -15 5 -11 11 9 15 -81 95 -115 102 -14 3 -35 13 -46 22
-19 16 -18 16 25 10 25 -3 49 -10 55 -16 12 -12 35 -12 35 1 0 6 -9 10 -19 10
-11 0 -21 5 -23 12 -5 14 -74 16 -102 4 -18 -9 -18 -8 0 12 10 12 24 22 31 22
7 0 13 4 13 10 0 5 -7 7 -16 3 -12 -4 -15 -2 -12 8 3 8 13 13 22 13 9 -1 16 1
16 5 0 13 -62 41 -83 37 -12 -1 -17 -1 -10 1 16 6 25 33 10 33 -7 0 -25 12
-40 26 -36 33 -46 24 -17 -16 12 -17 20 -33 17 -36 -2 -2 -28 11 -58 31 -29
19 -61 35 -71 35 -9 0 -20 5 -23 10 -10 16 21 23 45 10 16 -9 25 -9 33 -1 17
17 44 13 87 -14 26 -16 59 -27 93 -29 28 -3 57 -5 62 -6 19 -4 35 0 35 9 0 10
-59 21 -115 21 -29 0 -48 7 -69 25 -18 16 -36 23 -48 19 -20 -6 -88 15 -88 28
0 5 34 6 76 2 63 -6 76 -5 72 7 -3 8 -13 14 -24 14 -22 1 -44 13 -44 24 0 14
44 21 51 9 6 -9 11 -9 21 -1 7 6 26 13 41 15 36 4 31 21 -8 25 -16 2 -34 8
-39 13 -6 6 -20 10 -32 10 -12 0 -25 7 -28 16 -4 11 -1 14 12 10 22 -7 47 8
37 24 -4 7 -17 9 -31 6 -25 -7 -34 8 -11 17 6 3 -10 6 -38 7 -43 0 -47 2 -30
12 34 20 75 17 101 -9 24 -24 49 -30 59 -13 4 6 -5 10 -20 10 -24 0 -26 3 -21
24 5 21 3 23 -15 19 -15 -4 -22 0 -26 16 -3 11 -11 21 -18 21 -16 0 -45 33
-45 52 0 14 -4 14 -35 -1 -41 -19 -45 -31 -10 -31 14 0 25 -5 25 -11 0 -6 -6
-9 -12 -7 -7 3 -21 -6 -31 -19 -13 -17 -27 -22 -50 -20 -26 2 -33 -2 -35 -20
-4 -30 25 -31 61 -3 14 11 31 20 39 20 9 -1 8 -5 -4 -14 -22 -16 -23 -26 -3
-26 8 0 15 -4 15 -10 0 -5 -15 -10 -32 -10 -18 0 -57 -3 -86 -6 -46 -6 -50 -8
-35 -20 16 -12 16 -13 -9 -14 -33 0 -36 -13 -8 -33 11 -8 17 -17 13 -20 -3 -4
-12 -2 -19 4 -20 16 -85 2 -77 -16 4 -11 -3 -15 -25 -15 -17 0 -32 -5 -34 -12
-3 -8 -7 -6 -11 5 -5 13 3 22 33 37 22 11 46 20 55 20 24 0 18 19 -9 26 -14 3
-36 -2 -57 -15 -19 -12 -44 -21 -56 -21 -12 0 -28 -6 -35 -13 -19 -22 -50 -9
-42 17 4 11 11 23 15 24 12 5 12 32 0 32 -5 0 -18 -16 -30 -35 -13 -23 -28
-35 -42 -35 -18 0 -19 2 -9 15 11 13 11 20 0 39 -15 29 -9 42 27 51 15 3 30
10 33 13 3 4 18 12 34 17 33 11 47 35 21 35 -11 0 -15 5 -11 15 4 11 -1 15
-19 15 -14 0 -25 -4 -25 -10 0 -5 -5 -10 -11 -10 -6 0 -9 10 -7 23 2 18 9 22
38 22 57 1 77 13 99 60 12 25 21 49 21 55 0 5 5 10 11 10 5 0 7 -5 4 -10 -3
-6 5 -14 19 -20 25 -9 38 -50 16 -50 -5 0 -10 -8 -10 -17 0 -13 3 -14 11 -6 6
6 17 9 24 7 17 -7 111 51 153 93 18 18 37 33 42 33 6 0 10 6 10 14 0 8 5 16
12 18 6 2 8 9 4 16 -9 15 -70 -18 -72 -39 -2 -31 -5 -33 -19 -15 -13 18 -15
18 -43 -3 -17 -12 -44 -21 -61 -21 -17 0 -31 -4 -31 -10 0 -21 -16 -9 -17 13
0 12 1 17 4 10 3 -8 14 -7 41 6 78 36 83 40 69 61 -6 11 -18 20 -25 20 -13 0
-12 19 3 62 2 7 -2 21 -9 31 -12 16 -17 16 -35 6 -11 -7 -23 -10 -26 -7 -12
12 5 46 25 51 25 6 26 26 3 33 -10 3 -26 10 -37 15 -13 7 -16 7 -11 0 3 -6 0
-18 -9 -26 -9 -9 -17 -11 -21 -5 -3 5 -17 10 -30 10 -18 0 -23 4 -19 15 4 8
10 13 14 10 5 -3 12 0 16 6 16 27 -46 32 -126 10 -25 -7 -51 -18 -59 -24 -11
-10 -13 -8 -7 11 11 32 -10 28 -45 -10 -31 -35 -34 -45 -20 -67 8 -12 12 -12
25 -2 21 18 119 15 159 -4 18 -8 45 -26 60 -39 16 -14 34 -27 40 -29 6 -2 7
-8 3 -15 -8 -13 -36 -5 -36 12 -1 6 -22 21 -49 34 -39 19 -61 23 -127 21 -54
-1 -85 -6 -96 -17 -10 -8 -16 -18 -13 -21 2 -4 -8 -7 -23 -6 -20 0 -26 5 -24
18 2 11 -7 21 -23 27 -15 6 -23 15 -20 21 4 6 13 8 21 5 8 -3 14 -1 14 4 0 6
-6 10 -14 10 -21 0 -31 21 -15 32 12 7 11 9 -1 7 -34 -3 -41 1 -35 21 7 21 -4
26 -20 11 -20 -18 -62 -21 -75 -6 -19 23 -43 19 -35 -5 4 -11 2 -20 -4 -20 -6
0 -11 4 -11 9 0 4 -31 13 -70 20 -38 6 -104 22 -146 36 -42 14 -83 25 -91 25
-7 0 -16 7 -20 16 -15 39 -93 36 -93 -4 0 -15 -2 -15 -10 -2 -5 8 -10 11 -11
5 0 -5 -2 -24 -4 -41 -5 -38 20 -68 31 -39 4 10 1 21 -7 25 -18 12 31 31 60
23 23 -6 51 -54 51 -87 0 -15 3 -17 12 -8 17 17 28 15 28 -6 0 -26 -11 -34
-27 -20 -10 8 -17 8 -25 0 -9 -9 -9 -12 2 -12 7 0 11 -3 7 -6 -6 -7 -77 25
-77 35 0 4 5 12 11 18 6 6 8 16 4 23 -5 8 -14 5 -30 -10 l-23 -21 -21 22 c-24
26 -41 18 -23 -11 16 -26 2 -25 -26 0 -21 20 -31 47 -14 36 11 -6 24 4 39 31
10 18 9 22 -5 28 -11 4 -23 -2 -35 -20 -10 -14 -23 -23 -28 -19 -5 3 6 24 23
47 18 23 34 44 36 47 2 3 9 -3 16 -12 18 -24 26 -12 19 25 -5 25 -3 29 9 24
25 -9 38 14 38 70 0 57 10 66 35 31 15 -23 15 -22 9 10 -5 25 -3 32 10 32 8 0
18 -11 22 -25 8 -32 24 -22 24 16 0 16 5 29 10 29 6 0 10 -9 10 -20 0 -12 8
-35 17 -53 14 -26 18 -29 21 -13 2 10 -1 23 -7 29 -13 13 -2 69 15 80 7 4 10
15 7 23 -5 15 -7 15 -15 0 -7 -12 -13 -14 -21 -7 -7 5 -16 11 -22 13 -5 1 -9
17 -7 34 4 37 -4 44 -36 30z m8 -76 c0 -5 -5 -10 -11 -10 -5 0 -7 5 -4 10 3 6
8 10 11 10 2 0 4 -4 4 -10z m-750 -94 c0 -3 -4 -8 -10 -11 -5 -3 -10 -1 -10 4
0 6 5 11 10 11 6 0 10 -2 10 -4z m341 -93 c-22 -41 -38 -56 -45 -44 -4 6 3 22
16 36 27 29 43 33 29 8z m-281 -36 c0 -5 -4 -5 -10 -2 -5 3 -10 14 -10 23 0
15 2 15 10 2 5 -8 10 -19 10 -23z m370 3 c0 -5 -2 -10 -4 -10 -3 0 -8 5 -11
10 -3 6 -1 10 4 10 6 0 11 -4 11 -10z m-55 -30 c3 -5 1 -10 -4 -10 -6 0 -11 5
-11 10 0 6 2 10 4 10 3 0 8 -4 11 -10z m180 0 c-3 -5 -10 -10 -16 -10 -5 0 -9
5 -9 10 0 6 7 10 16 10 8 0 12 -4 9 -10z m-595 -24 c0 -13 39 -30 49 -21 2 3
-1 5 -7 5 -7 0 -12 5 -12 10 0 6 9 10 20 10 11 0 20 -4 20 -10 0 -5 -9 -15
-20 -22 -23 -15 -27 -38 -5 -38 8 0 15 -4 15 -9 0 -5 14 -12 30 -16 17 -4 28
-11 24 -16 -3 -5 -14 -7 -24 -4 -18 6 -18 4 -4 -24 9 -17 25 -38 37 -46 12 -8
22 -24 22 -35 0 -11 4 -20 9 -19 9 0 22 -20 56 -88 11 -24 27 -43 35 -43 8 0
15 -5 15 -11 0 -6 -9 -9 -20 -6 -12 3 -20 0 -20 -7 0 -7 -7 -13 -15 -13 -8 0
-15 6 -15 13 0 7 -6 14 -12 17 -10 3 -10 9 1 27 12 22 11 26 -28 58 -29 24
-40 39 -36 52 8 24 -48 85 -78 85 -12 0 -33 -10 -45 -22 l-24 -22 39 -7 c50
-9 56 -13 43 -29 -8 -10 -6 -15 9 -20 27 -8 27 -25 0 -25 -11 0 -17 -4 -14
-10 10 -16 0 -12 -25 10 -27 24 -40 25 -40 5 0 -8 -4 -15 -10 -15 -5 0 -10 -5
-10 -11 0 -6 6 -9 13 -6 7 2 27 -8 46 -23 l33 -28 -43 9 c-24 6 -50 16 -57 23
-15 15 -72 9 -72 -8 0 -13 67 -42 87 -38 6 2 14 -2 18 -8 3 -5 18 -10 33 -11
l27 -1 -25 -8 c-14 -4 -20 -9 -15 -9 23 -3 -23 -21 -52 -21 -23 0 -33 5 -33
15 0 8 -4 15 -10 15 -5 0 -10 -6 -10 -14 0 -8 -6 -16 -12 -19 -9 -3 -7 -10 7
-21 19 -17 18 -17 -26 -13 -47 4 -78 -9 -80 -34 0 -8 -4 -4 -10 9 -6 17 -5 27
6 38 8 9 18 34 21 56 5 28 13 42 25 45 26 7 24 23 -2 23 -16 0 -19 4 -14 20 7
22 5 23 -19 14 -9 -3 -14 -9 -12 -13 3 -4 1 -13 -4 -21 -5 -9 -7 31 -5 99 3
117 -4 131 -24 47 -7 -27 -21 -66 -31 -87 -25 -48 -25 -60 0 -82 21 -18 27
-57 9 -57 -6 0 -8 9 -4 20 9 29 -23 26 -34 -2 -6 -16 -8 -3 -6 43 1 36 7 74
13 85 6 10 21 54 34 96 l22 77 22 -20 c14 -13 24 -17 29 -10 3 6 11 11 17 11
5 0 1 -16 -11 -36 -23 -39 -26 -54 -11 -54 6 0 10 7 10 15 0 8 5 15 11 15 7 0
9 -10 5 -26 -6 -21 -4 -25 11 -22 13 3 17 12 16 31 -1 18 3 27 13 27 8 0 14
-6 14 -12 0 -8 7 -5 15 6 11 14 12 23 4 33 -19 22 2 14 22 -9 19 -21 19 -21
19 -1 0 22 32 42 38 24 5 -14 52 -14 52 -1 0 6 -7 24 -15 40 -9 17 -12 30 -9
30 4 0 -2 10 -14 23 -12 13 -19 27 -15 30 11 12 23 8 23 -7z m350 -5 c0 -10
-42 -23 -49 -15 -7 6 20 24 37 24 6 0 12 -4 12 -9z m70 -26 c-7 -9 -15 -13
-17 -11 -7 7 7 26 19 26 6 0 6 -6 -2 -15z m-444 -52 c-10 -10 -19 5 -10 18 6
11 8 11 12 0 2 -7 1 -15 -2 -18z m334 -25 c0 -36 -16 -29 -22 11 -3 21 -1 28
9 24 7 -3 13 -18 13 -35z m-300 16 c0 -8 -4 -12 -10 -9 -5 3 -10 10 -10 16 0
5 5 9 10 9 6 0 10 -7 10 -16z m430 -9 c0 -8 -4 -15 -9 -15 -13 0 -22 16 -14
24 11 11 23 6 23 -9z m-202 -7 c-6 -18 -28 -21 -28 -4 0 9 7 16 16 16 9 0 14
-5 12 -12z m-45 -13 c-4 -15 -36 -12 -41 3 -3 9 3 13 19 10 13 -1 23 -7 22
-13z m347 5 c0 -5 -4 -10 -10 -10 -5 0 -10 5 -10 10 0 6 5 10 10 10 6 0 10 -4
10 -10z m40 -4 c0 -8 -7 -16 -15 -20 -12 -4 -13 -2 -2 14 14 24 17 25 17 6z
m1180 -6 c0 -5 -6 -10 -14 -10 -8 0 -18 5 -21 10 -3 6 3 10 14 10 12 0 21 -4
21 -10z m-1400 -22 c0 -19 -2 -20 -10 -8 -13 19 -13 30 0 30 6 0 10 -10 10
-22z m130 12 c0 -5 -4 -10 -10 -10 -5 0 -10 5 -10 10 0 6 5 10 10 10 6 0 10
-4 10 -10z m499 0 c67 -9 90 -20 91 -42 0 -4 -7 -5 -15 -2 -18 7 -20 -12 -2
-19 9 -4 8 -8 -3 -17 -20 -15 -92 -3 -107 17 -7 9 -16 14 -20 10 -3 -4 2 -16
12 -27 28 -31 13 -33 -39 -5 -26 14 -51 23 -56 20 -18 -11 -20 16 -3 45 20 34
27 35 142 20z m271 -20 c0 -5 -4 -10 -10 -10 -5 0 -10 5 -10 10 0 6 5 10 10
10 6 0 10 -4 10 -10z m-970 -41 c0 -9 9 -19 20 -22 11 -3 20 -14 20 -24 0 -34
-12 -33 -30 2 -21 41 -37 99 -20 75 5 -8 10 -22 10 -31z m266 4 c-10 -10 -19
5 -10 18 6 11 8 11 12 0 2 -7 1 -15 -2 -18z m-136 -49 c0 -8 -4 -12 -10 -9 -5
3 -10 10 -10 16 0 5 5 9 10 9 6 0 10 -7 10 -16z m-150 -4 c0 -5 -4 -10 -10
-10 -5 0 -10 5 -10 10 0 6 5 10 10 10 6 0 10 -4 10 -10z m1297 -8 c12 -7 28
-18 35 -24 20 -19 50 -38 71 -44 9 -4 17 -10 17 -15 0 -15 -42 -10 -85 10 -22
10 -52 21 -67 25 -16 3 -28 11 -28 16 0 6 -7 10 -15 10 -14 0 -21 21 -10 32 9
8 59 2 82 -10z m-882 -12 c3 -5 1 -10 -4 -10 -6 0 -11 5 -11 10 0 6 2 10 4 10
3 0 8 -4 11 -10z m-938 -22 c-3 -8 -6 -5 -6 6 -1 11 2 17 5 13 3 -3 4 -12 1
-19z m617 -4 c9 -22 8 -23 -14 -17 -21 5 -25 15 -13 26 11 11 20 8 27 -9z m64
-23 c3 -8 -1 -12 -9 -9 -7 2 -15 10 -17 17 -3 8 1 12 9 9 7 -2 15 -10 17 -17z
m1372 -1 c0 -5 -5 -10 -11 -10 -5 0 -7 5 -4 10 3 6 8 10 11 10 2 0 4 -4 4 -10z
m-1410 -20 c0 -5 -5 -10 -11 -10 -5 0 -7 5 -4 10 3 6 8 10 11 10 2 0 4 -4 4
-10z m80 -16 c0 -2 -7 -4 -15 -4 -8 0 -15 4 -15 10 0 5 7 7 15 4 8 -4 15 -8
15 -10z m-813 -16 c-3 -8 -6 -5 -6 6 -1 11 2 17 5 13 3 -3 4 -12 1 -19z m133
-4 c0 -8 -5 -12 -10 -9 -6 4 -8 11 -5 16 9 14 15 11 15 -7z m565 -4 c-3 -5
-14 -10 -23 -9 -14 0 -13 2 3 9 27 11 27 11 20 0z m1410 -50 c-3 -5 -10 -10
-16 -10 -5 0 -9 5 -9 10 0 6 7 10 16 10 8 0 12 -4 9 -10z m-2065 -26 c0 -8 -5
-12 -10 -9 -6 4 -8 11 -5 16 9 14 15 11 15 -7z m980 1 c0 -8 -4 -15 -10 -15
-5 0 -10 7 -10 15 0 8 5 15 10 15 6 0 10 -7 10 -15z m-710 -15 c0 -5 -2 -10
-4 -10 -3 0 -8 5 -11 10 -3 6 -1 10 4 10 6 0 11 -4 11 -10z m-39 -53 c4 -15 4
-28 1 -28 -34 -7 -60 -4 -52 6 6 7 7 15 3 18 -8 9 18 38 30 34 6 -2 14 -15 18
-30z m1531 8 c0 -5 -5 -11 -11 -13 -6 -2 -11 4 -11 13 0 9 5 15 11 13 6 -2 11
-8 11 -13z m-1168 -17 c29 1 37 -1 29 -9 -14 -14 -153 -2 -153 13 0 6 16 7 43
2 23 -5 60 -7 81 -6z m1162 -45 c-11 -11 -19 6 -11 24 8 17 8 17 12 0 3 -10 2
-21 -1 -24z m-1646 7 c-6 -11 -16 -17 -25 -14 -27 11 -15 34 17 34 15 0 17 -3
8 -20z m725 10 c3 -5 1 -10 -4 -10 -6 0 -11 5 -11 10 0 6 2 10 4 10 3 0 8 -4
11 -10z m795 -10 c0 -5 -2 -10 -4 -10 -3 0 -8 5 -11 10 -3 6 -1 10 4 10 6 0
11 -4 11 -10z m-1065 -10 c-3 -5 -10 -10 -16 -10 -5 0 -9 5 -9 10 0 6 7 10 16
10 8 0 12 -4 9 -10z m135 -35 c0 -8 -4 -15 -10 -15 -5 0 -10 7 -10 15 0 8 5
15 10 15 6 0 10 -7 10 -15z m-210 -3 c0 -14 -36 -43 -43 -35 -4 3 0 15 10 25
17 19 33 24 33 10z m450 -52 c21 -22 43 -40 49 -40 6 0 11 -4 11 -10 0 -22
-28 -8 -68 34 -23 24 -42 47 -42 50 0 13 13 4 50 -34z m-730 20 c0 -5 -5 -10
-11 -10 -5 0 -7 5 -4 10 3 6 8 10 11 10 2 0 4 -4 4 -10z m570 -10 c0 -5 -7
-10 -15 -10 -8 0 -15 5 -15 10 0 6 7 10 15 10 8 0 15 -4 15 -10z m340 -20 c0
-5 -4 -10 -10 -10 -5 0 -10 5 -10 10 0 6 5 10 10 10 6 0 10 -4 10 -10z m350
-42 c0 -15 -23 -8 -36 9 -9 13 -9 21 -1 31 8 11 13 9 23 -10 8 -13 13 -26 14
-30z m-414 16 c13 -3 24 -10 24 -16 0 -12 -38 0 -65 20 -18 13 -18 14 -2 8 11
-3 30 -9 43 -12z m174 6 c0 -5 -14 -9 -31 -8 -40 4 -45 -10 -16 -42 28 -30 39
-57 27 -65 -5 -3 -10 5 -12 17 -2 17 -15 26 -51 37 -48 15 -60 39 -16 33 19
-3 22 -1 12 9 -20 21 -16 24 37 27 30 1 50 -2 50 -8z m406 -27 c-11 -11 -19 6
-11 24 8 17 8 17 12 0 3 -10 2 -21 -1 -24z m68 -21 c-6 -15 -8 -15 -12 3 -2
11 -8 24 -13 30 -5 5 -9 13 -9 19 0 5 9 0 21 -13 14 -14 18 -28 13 -39z
m-1054 39 c0 -14 -18 -23 -30 -16 -6 4 -8 11 -5 16 8 12 35 12 35 0z m-315
-11 c-3 -5 -12 -10 -18 -10 -7 0 -6 4 3 10 19 12 23 12 15 0z m905 -8 c0 -5
19 -17 43 -28 43 -19 67 -37 67 -50 0 -5 -5 -3 -12 4 -15 15 -48 16 -48 2 0
-20 -16 -9 -35 23 -10 17 -26 37 -34 44 -14 11 -14 12 2 13 9 0 17 -4 17 -8z
m1070 -32 c11 -6 18 -16 14 -21 -4 -7 -10 -7 -17 0 -6 6 -24 11 -39 11 -15 0
-28 4 -28 9 0 5 -9 11 -21 14 -12 3 -18 10 -15 16 7 10 61 -5 106 -29z m-930
16 c0 -18 -16 -29 -30 -21 -13 8 -1 35 16 35 8 0 14 -6 14 -14z m45 4 c3 -5 1
-10 -4 -10 -6 0 -11 5 -11 10 0 6 2 10 4 10 3 0 8 -4 11 -10z m-470 -10 c3 -5
15 -10 26 -10 10 0 19 -4 19 -10 0 -5 -16 -10 -35 -10 -19 0 -35 5 -35 10 0 6
-7 10 -16 10 -8 0 -12 5 -9 10 3 6 15 10 25 10 10 0 22 -4 25 -10z m-590 -10
c3 -5 -1 -10 -10 -10 -9 0 -13 5 -10 10 3 6 8 10 10 10 2 0 7 -4 10 -10z
m1347 -50 c21 -40 21 -40 8 -40 -5 0 -12 11 -16 25 -5 19 -11 24 -24 20 -12
-4 -19 1 -22 13 -9 34 35 20 54 -18z m63 30 c3 -5 -1 -10 -9 -10 -9 0 -16 5
-16 10 0 6 4 10 9 10 6 0 13 -4 16 -10z m-878 -73 c-2 -12 36 -25 76 -26 15
-1 37 -10 48 -20 21 -19 21 -19 -20 -14 -26 4 -41 2 -41 -5 0 -6 -8 -12 -17
-15 -10 -2 0 -7 22 -11 60 -11 65 -14 59 -31 -7 -17 -49 -21 -59 -5 -3 6 -19
10 -34 10 -16 0 -34 6 -40 14 -7 8 -26 18 -42 21 -16 4 -29 13 -29 20 0 7 -6
15 -12 18 -7 2 -10 8 -6 12 4 4 15 2 24 -5 10 -10 18 -10 22 -3 4 6 16 12 27
14 16 3 9 11 -33 37 -68 42 -67 59 2 25 30 -15 54 -31 53 -36z m103 31 c0 -5
-13 -8 -30 -8 -27 0 -40 17 -25 32 7 7 55 -14 55 -24z m914 7 c-6 -16 -24 -21
-24 -7 0 11 11 22 21 22 5 0 6 -7 3 -15z m-369 -5 c-3 -5 -13 -10 -21 -10 -8
0 -12 5 -9 10 3 6 13 10 21 10 8 0 12 -4 9 -10z m-285 -14 c0 -18 -16 -29 -30
-21 -13 8 -1 35 16 35 8 0 14 -6 14 -14z m939 -2 c3 -2 -1 -10 -7 -16 -9 -9
-22 -9 -57 0 -25 7 -58 12 -73 13 -24 0 -25 1 -7 10 19 8 135 3 144 -7z m-432
-30 c-3 -3 -12 -4 -19 -1 -8 3 -5 6 6 6 11 1 17 -2 13 -5z m-627 -14 c0 -5 -2
-10 -4 -10 -3 0 -8 5 -11 10 -3 6 -1 10 4 10 6 0 11 -4 11 -10z m345 -30 c-3
-5 -12 -10 -18 -10 -7 0 -6 4 3 10 19 12 23 12 15 0z m624 -11 c-16 -10 -23
-4 -14 10 3 6 11 8 17 5 6 -4 5 -9 -3 -15z m127 1 c24 -11 44 -23 44 -27 0 -7
-71 4 -107 18 -22 8 -24 12 -13 19 21 13 25 13 76 -10z m-520 -28 c-9 -9 -37
8 -31 18 5 8 11 7 21 -1 8 -6 12 -14 10 -17z m342 0 c3 -16 -1 -20 -12 -16
-19 7 -22 48 -3 42 6 -3 13 -14 15 -26z m271 -14 c6 -7 15 -13 19 -13 4 0 21
-13 37 -29 23 -21 25 -25 8 -17 -47 24 -40 8 25 -59 49 -50 74 -69 85 -64 21
8 22 -13 4 -48 l-12 -24 -40 18 c-22 9 -51 18 -65 18 -20 0 -22 2 -10 10 8 6
27 7 43 4 16 -3 27 -1 27 5 0 6 -7 11 -15 11 -9 0 -21 11 -27 25 -6 14 -14 21
-18 15 -4 -7 -19 -6 -45 3 -41 14 -37 28 8 23 14 -2 24 1 21 5 -3 5 -11 9 -19
9 -7 0 -15 7 -19 15 -3 8 -18 20 -33 27 l-28 11 29 6 28 6 -21 19 c-12 11 -21
23 -21 28 0 12 24 10 39 -4z m-1609 -8 c0 -5 -13 -8 -30 -7 -39 3 -39 17 0 17
17 0 30 -4 30 -10z m660 0 c0 -5 -2 -10 -4 -10 -3 0 -8 5 -11 10 -3 6 -1 10 4
10 6 0 11 -4 11 -10z m37 -7 c-9 -9 -19 -14 -23 -11 -10 10 6 28 24 28 15 0
15 -1 -1 -17z m341 -4 c18 -14 34 -18 51 -14 24 6 25 6 9 -12 -11 -12 -15 -27
-11 -41 3 -13 1 -22 -6 -22 -6 0 -11 8 -11 18 0 9 -16 28 -35 42 -19 14 -35
31 -35 38 0 17 8 15 38 -9z m-882 2 c-3 -5 4 -8 17 -8 29 0 92 -39 78 -47 -17
-11 -13 -26 6 -26 9 0 14 -2 11 -5 -3 -3 -24 -2 -47 4 -58 13 -55 -10 5 -32
33 -12 51 -14 64 -7 10 6 31 10 47 10 15 0 35 5 43 10 13 9 12 12 -5 26 -19
14 -18 15 22 13 41 -3 42 -4 29 -23 -7 -12 -23 -22 -35 -24 -13 -2 -21 -11
-21 -23 0 -16 -5 -18 -25 -13 -15 4 -25 2 -25 -5 0 -14 -60 -14 -119 0 -53 12
-59 8 -30 -20 32 -30 18 -36 -16 -7 -35 30 -69 41 -61 20 6 -15 -29 -20 -38
-5 -3 5 -27 9 -53 10 -72 3 -71 3 -66 18 3 7 -1 13 -8 13 -7 0 -9 3 -5 7 3 4
27 6 51 4 25 -1 45 1 45 4 0 3 -21 15 -47 28 -69 33 -67 47 6 47 34 0 61 -4
61 -10 0 -5 -12 -10 -27 -10 -16 0 -23 -4 -17 -9 5 -5 29 -5 54 -1 25 4 38 8
29 9 -19 1 -55 39 -46 48 4 3 18 1 33 -5 20 -10 30 -9 47 3 23 16 52 20 43 6z
m634 -1 c12 -8 11 -10 -7 -10 -13 0 -23 5 -23 10 0 13 11 13 30 0z m360 -10
c0 -5 -5 -10 -11 -10 -5 0 -7 5 -4 10 3 6 8 10 11 10 2 0 4 -4 4 -10z m320
-10 c0 -5 19 -13 43 -18 23 -5 41 -14 40 -20 -2 -7 4 -12 12 -12 8 0 15 -2 15
-5 0 -12 -42 -45 -57 -45 -12 0 -14 3 -6 11 7 7 -2 22 -33 52 -45 43 -55 61
-29 51 8 -4 15 -10 15 -14z m-1005 -1 c11 -17 -1 -21 -15 -4 -8 9 -8 15 -2 15
6 0 14 -5 17 -11z m239 -14 c-20 -30 -25 -31 -42 -5 -12 19 -11 20 13 14 15
-4 25 -2 25 5 0 6 5 11 10 11 6 0 3 -11 -6 -25z m688 17 c2 -5 17 -15 33 -23
23 -11 34 -26 46 -64 11 -31 34 -68 63 -99 26 -27 45 -55 42 -62 -3 -7 2 -15
10 -18 8 -3 14 -14 14 -25 0 -11 15 -31 33 -45 28 -23 29 -26 11 -26 -11 0
-29 9 -39 20 -20 22 -45 27 -45 8 0 -6 9 -21 20 -33 19 -21 19 -21 0 -22 -11
-1 -18 2 -15 8 4 5 1 9 -4 9 -6 0 -11 7 -11 15 0 9 -13 28 -28 43 -16 15 -27
33 -24 40 2 6 -8 16 -22 22 -23 9 -31 20 -27 43 0 4 -5 7 -12 7 -8 0 -14 6
-14 14 0 9 7 12 16 9 29 -11 32 -15 21 -28 -8 -9 -5 -14 10 -18 23 -6 25 3 8
36 -6 12 -14 28 -18 36 -3 8 -15 19 -26 25 -28 16 -33 27 -21 47 9 15 8 22 -5
36 -16 16 -19 16 -38 -2 -11 -10 -20 -13 -20 -7 0 7 -7 12 -16 12 -10 0 -12 4
-7 13 4 6 8 15 9 20 1 4 2 9 3 12 2 9 49 5 53 -3z m-156 -42 c17 -20 33 -28
51 -27 14 1 28 -4 30 -10 8 -22 -60 -16 -80 7 -9 11 -17 25 -17 30 0 6 -6 10
-12 10 -7 0 -22 8 -33 17 -19 15 -19 15 9 9 15 -4 39 -20 52 -36z m74 19 c0
-4 -5 -11 -10 -14 -13 -8 -42 14 -35 25 6 10 45 1 45 -11z m-825 -29 c-3 -5
-14 -10 -23 -9 -14 0 -13 2 3 9 27 11 27 11 20 0z m165 6 c0 -3 -4 -8 -10 -11
-5 -3 -10 -1 -10 4 0 6 5 11 10 11 6 0 10 -2 10 -4z m-43 -12 c-3 -3 -12 -4
-19 -1 -8 3 -5 6 6 6 11 1 17 -2 13 -5z m351 -6 c-6 -18 -28 -21 -28 -4 0 9 7
16 16 16 9 0 14 -5 12 -12z m-55 -23 c-3 -9 -8 -14 -10 -11 -3 3 -2 9 2 15 9
16 15 13 8 -4z m-39 -29 c-10 -8 -20 -13 -22 -11 -2 2 2 13 8 25 9 16 15 19
23 11 8 -8 6 -15 -9 -25z m269 28 c9 -9 -4 -35 -14 -28 -5 3 -9 12 -9 20 0 14
12 19 23 8z m-173 -42 c-8 -3 -22 -10 -30 -16 -8 -6 -7 -1 4 11 10 13 23 20
29 16 7 -4 6 -8 -3 -11z m-334 -27 c-15 -23 -15 -25 1 -25 9 0 -6 -12 -35 -27
-29 -15 -52 -32 -52 -38 0 -13 -33 -55 -44 -55 -3 0 -6 11 -6 25 0 30 3 30
-54 4 -26 -11 -52 -18 -59 -16 -7 2 2 7 20 11 19 4 48 25 72 51 29 31 52 46
78 51 21 4 48 18 61 32 29 30 41 22 18 -13z m586 13 c-6 -6 -15 -8 -19 -4 -4
4 -1 11 7 16 19 12 27 3 12 -12z m78 16 c0 -8 -43 -43 -54 -44 -5 0 1 11 14
25 22 24 40 32 40 19z m-532 -39 c-3 -3 -9 2 -12 12 -6 14 -5 15 5 6 7 -7 10
-15 7 -18z m372 5 c0 -5 -7 -10 -15 -10 -8 0 -15 5 -15 10 0 6 7 10 15 10 8 0
15 -4 15 -10z m70 -5 c11 -13 8 -15 -14 -15 -25 0 -33 10 -19 23 10 11 19 8
33 -8z m130 -5 c0 -5 -5 -10 -11 -10 -5 0 -7 5 -4 10 3 6 8 10 11 10 2 0 4 -4
4 -10z m527 -6 c3 -10 -48 -37 -55 -29 -8 7 31 44 42 41 6 -1 11 -6 13 -12z
m-1547 -9 c0 -11 -12 -15 -49 -15 -68 0 -75 18 -9 23 29 2 54 4 56 5 1 1 2 -5
2 -13z m413 0 c-3 -9 -8 -14 -10 -11 -3 3 -2 9 2 15 9 16 15 13 8 -4z m877 -5
c0 -5 -7 -10 -16 -10 -8 0 -12 5 -9 10 3 6 10 10 16 10 5 0 9 -4 9 -10z m-964
-60 c-20 -22 -36 -34 -36 -28 1 18 22 43 43 51 9 3 17 12 17 18 0 7 3 9 6 6 4
-4 -10 -25 -30 -47z m757 -30 c-3 -25 -10 -52 -15 -60 -6 -10 -7 -4 -3 17 5
25 1 38 -14 55 -23 24 -27 38 -11 38 6 0 10 -4 10 -10 0 -5 5 -10 10 -10 6 0
10 10 10 23 0 17 2 19 10 7 5 -8 6 -35 3 -60z m297 30 c7 0 10 -8 7 -20 -3
-11 -1 -18 4 -14 10 6 13 -19 3 -28 -3 -3 -14 -4 -25 -1 -14 4 -18 11 -14 24
4 12 2 19 -7 19 -7 0 -19 9 -25 19 -10 16 -9 20 5 24 9 2 22 -2 28 -10 6 -7
17 -13 24 -13z m-1126 -34 c-16 -19 -33 -35 -38 -35 -11 -1 23 50 43 66 27 20
25 5 -5 -31z m111 34 c3 -5 1 -10 -4 -10 -6 0 -11 5 -11 10 0 6 2 10 4 10 3 0
8 -4 11 -10z m385 -10 c0 -5 -7 -7 -15 -4 -8 4 -15 8 -15 10 0 2 7 4 15 4 8 0
15 -4 15 -10z m107 -47 c-17 -39 -36 -36 -26 5 4 20 5 41 2 46 -3 6 3 2 14 -9
16 -16 18 -25 10 -42z m137 41 c8 -21 8 -24 -3 -24 -5 0 -11 9 -14 20 -6 24 8
27 17 4z m466 -1 c-8 -3 -18 -10 -21 -16 -4 -5 -13 -6 -20 -2 -9 6 -8 10 7 16
10 4 26 8 34 8 13 -1 13 -1 0 -6z m-1038 -35 c-4 -28 -6 -30 -13 -13 -12 30
-10 45 4 45 10 0 12 -10 9 -32z m-452 13 c-25 -14 -90 -23 -90 -12 0 13 19 19
65 20 27 0 35 -2 25 -8z m619 -25 c-3 -3 -11 5 -18 17 -13 21 -12 21 5 5 10
-10 16 -20 13 -22z m-469 4 c0 -5 -3 -10 -8 -10 -15 0 -73 -60 -67 -70 5 -9
-62 -79 -77 -80 -13 0 -68 -62 -68 -76 0 -8 -4 -14 -10 -14 -15 0 -12 22 9 62
l18 37 -25 -17 c-28 -18 -107 -28 -97 -12 3 6 13 10 21 10 8 0 32 11 54 25 22
14 43 25 48 25 5 0 17 9 27 20 17 19 16 19 -21 14 l-39 -5 41 18 c23 10 48 24
56 31 9 7 39 18 67 25 28 6 51 15 51 19 0 5 5 8 10 8 6 0 10 -4 10 -10z m160
-11 c0 -12 -8 -23 -20 -26 -11 -3 -17 -9 -14 -14 3 -5 1 -9 -4 -9 -17 0 -57
-129 -49 -159 3 -12 1 -19 -4 -15 -5 3 -9 -2 -9 -10 0 -18 -30 -56 -43 -56 -5
0 -4 7 3 15 6 8 9 19 5 25 -4 6 1 17 11 25 14 10 16 17 8 25 -12 12 -7 60 6
60 5 0 16 21 26 48 14 36 59 98 82 111 1 0 2 -8 2 -20z m80 11 c0 -19 -29 -75
-54 -105 -28 -33 -36 -23 -10 13 9 13 13 30 10 38 -3 8 4 26 16 39 23 26 38
32 38 15z m535 -1 c11 -17 -1 -21 -15 -4 -8 9 -8 15 -2 15 6 0 14 -5 17 -11z
m115 1 c0 -5 -4 -10 -10 -10 -5 0 -10 -7 -10 -15 0 -8 -7 -15 -15 -15 -19 0
-19 9 2 32 18 20 33 24 33 8z m-556 -24 c-3 -9 -10 -16 -15 -16 -6 0 -5 9 1
21 13 24 24 20 14 -5z m-274 6 c0 -5 -12 -15 -27 -23 -14 -8 -34 -27 -44 -42
-12 -20 -19 -25 -24 -16 -5 8 8 26 36 50 44 39 59 46 59 31z m233 -100 c-3
-12 -9 -22 -14 -22 -12 0 -11 7 2 32 13 25 20 19 12 -10z m265 3 c-3 -3 -9 2
-12 12 -6 14 -5 15 5 6 7 -7 10 -15 7 -18z m535 4 c34 -18 53 -57 22 -46 -8 4
-17 2 -20 -3 -3 -5 -20 -3 -39 5 -21 9 -37 11 -45 5 -6 -6 -5 -3 2 5 11 13 19
14 42 5 35 -13 43 -6 20 20 -20 23 -14 25 18 9z m267 -4 c0 -8 -6 -15 -14 -15
-20 0 -29 17 -14 23 22 9 28 7 28 -8z m-1416 -17 c-33 -39 -56 -58 -72 -58
-12 0 -12 -2 -1 -17 12 -15 12 -16 -4 -10 -12 5 -25 -1 -41 -18 -13 -14 -26
-22 -29 -18 -9 8 104 113 121 113 7 0 15 7 18 15 4 8 11 15 17 15 5 0 2 -10
-9 -22z m433 -10 c-3 -7 -5 -2 -5 12 0 14 2 19 5 13 2 -7 2 -19 0 -25z m-209
-18 c-7 -10 -14 -18 -15 -16 -6 6 9 36 18 36 5 0 4 -9 -3 -20z m896 -24 c9 3
16 1 16 -6 0 -17 -52 -8 -58 10 -4 12 -3 13 10 2 9 -7 23 -10 32 -6z m-934
-21 c-7 -8 -17 -15 -22 -15 -11 0 14 29 26 30 5 0 3 -7 -4 -15z m681 -28 c-1
-12 -15 -9 -19 4 -3 6 1 10 8 8 6 -3 11 -8 11 -12z m1229 -7 c0 -5 -4 -10 -10
-10 -5 0 -10 5 -10 10 0 6 5 10 10 10 6 0 10 -4 10 -10z m-2430 -20 c-24 -15
-36 -11 -14 4 10 8 21 12 24 10 2 -3 -2 -9 -10 -14z m1267 -13 c-13 -28 -22
-33 -32 -17 -3 5 -12 7 -19 4 -7 -3 -16 2 -20 11 -8 21 20 31 40 14 13 -11 18
-10 26 5 15 27 19 13 5 -17z m1608 23 c3 -5 1 -10 -4 -10 -6 0 -11 5 -11 10 0
6 2 10 4 10 3 0 8 -4 11 -10z m-2625 -10 c0 -5 -5 -10 -11 -10 -5 0 -7 5 -4
10 3 6 8 10 11 10 2 0 4 -4 4 -10z m2506 -48 c-10 -2 -25 3 -35 12 -10 9 -23
16 -30 16 -7 0 -9 5 -6 10 4 6 10 8 15 5 5 -3 12 0 16 6 5 9 15 3 32 -17 22
-26 23 -29 8 -32z m-2371 39 c3 -5 1 -12 -5 -16 -5 -3 -10 1 -10 9 0 18 6 21
15 7z m702 -13 c-3 -8 -6 -5 -6 6 -1 11 2 17 5 13 3 -3 4 -12 1 -19z m-551
-35 c-10 -10 -19 5 -10 18 6 11 8 11 12 0 2 -7 1 -15 -2 -18z m2097 -58 c29
-30 33 -22 13 26 -5 10 -1 19 8 22 12 5 16 0 16 -17 0 -13 9 -35 20 -49 11
-14 20 -35 20 -47 0 -12 5 -30 10 -40 7 -14 6 -29 -7 -55 -14 -30 -15 -40 -4
-70 13 -37 7 -60 -12 -49 -9 5 -9 4 -1 -5 6 -6 27 -12 47 -13 28 -1 37 -5 37
-19 0 -10 5 -21 11 -25 7 -4 9 -21 5 -46 -8 -49 11 -49 33 0 16 35 34 37 39 6
4 -27 36 -94 45 -94 4 0 7 8 7 18 0 25 16 46 29 37 9 -5 9 -10 1 -20 -11 -14
-4 -42 17 -63 20 -20 16 -34 -7 -27 -21 7 -59 -26 -60 -51 0 -6 -9 -19 -19
-28 -18 -17 -20 -17 -40 3 -17 17 -26 19 -41 11 -15 -8 -21 -5 -34 20 -12 25
-12 30 -1 30 8 0 17 -4 20 -10 3 -5 13 -10 22 -10 11 0 14 6 9 23 -3 13 0 32
8 43 20 29 30 77 14 70 -7 -3 -21 -9 -30 -12 -10 -4 -18 -12 -18 -20 0 -14
-68 -84 -81 -84 -5 0 -6 7 -2 16 3 9 0 20 -7 24 -9 6 -7 11 9 20 31 16 45 57
26 76 -8 9 -15 27 -15 40 0 25 -26 61 -36 51 -7 -7 -44 30 -44 43 0 6 5 10 11
10 6 0 9 7 6 15 -4 8 -2 17 3 20 15 9 4 128 -15 165 -10 19 -31 51 -47 71 -49
64 -27 60 35 -6z m-2287 30 c-8 -8 -18 -15 -22 -15 -3 0 -1 7 6 15 7 8 17 15
22 15 5 0 3 -7 -6 -15z m308 -40 c-9 -14 -19 -23 -22 -20 -3 3 2 13 11 23 10
10 18 27 18 38 1 16 2 16 6 2 2 -9 -3 -28 -13 -43z m516 46 c0 -5 3 -18 6 -28
6 -16 5 -16 -9 2 -19 23 -21 35 -7 35 6 0 10 -4 10 -9z m1389 -6 c8 0 16 -6
18 -13 3 -8 -3 -11 -19 -8 -12 3 -26 5 -30 5 -5 1 -8 8 -8 17 0 10 4 12 13 7
6 -4 18 -8 26 -8z m251 -46 c-7 -16 -17 -29 -22 -29 -5 0 -8 3 -6 8 3 4 10 23
18 42 7 19 15 29 18 22 2 -7 -1 -26 -8 -43z m465 41 c3 -6 -1 -7 -9 -4 -18 7
-21 14 -7 14 6 0 13 -4 16 -10z m-2914 -47 c-12 -44 -51 -90 -51 -60 0 10 5
17 11 17 6 0 9 9 6 20 -3 11 -2 20 2 20 4 0 13 12 20 26 17 38 24 23 12 -23z
m616 25 c-3 -8 -6 -5 -6 6 -1 11 2 17 5 13 3 -3 4 -12 1 -19z m1372 -55 c1 -7
-3 -13 -8 -13 -14 0 -22 31 -14 54 6 20 7 20 14 -4 4 -14 7 -31 8 -37z m221
31 c0 -8 -4 -12 -10 -9 -5 3 -10 10 -10 16 0 5 5 9 10 9 6 0 10 -7 10 -16z
m415 6 c3 -5 2 -10 -4 -10 -5 0 -13 5 -16 10 -3 6 -2 10 4 10 5 0 13 -4 16
-10z m425 -5 l25 -14 -32 -1 c-31 0 -49 11 -36 24 9 8 14 7 43 -9z m-3380 -30
c-7 -8 -18 -15 -26 -15 -9 0 -5 8 9 23 23 23 37 17 17 -8z m1109 -2 c9 -7 11
-13 6 -13 -16 0 -35 22 -34 40 0 13 1 13 6 0 4 -8 13 -20 22 -27z m1006 28 c3
-5 1 -12 -5 -16 -5 -3 -10 1 -10 9 0 18 6 21 15 7z m735 -6 c24 -13 24 -14 4
-15 -12 0 -27 7 -34 15 -16 19 -3 19 30 0z m-393 -1 c-3 -3 -12 -4 -19 -1 -8
3 -5 6 6 6 11 1 17 -2 13 -5z m132 -60 c51 -75 36 -82 -17 -7 -20 28 -28 53
-18 53 3 0 18 -20 35 -46z m-1889 23 c0 -2 -11 -14 -25 -27 -21 -19 -25 -21
-25 -7 0 9 7 17 15 17 8 0 15 5 15 10 0 6 5 10 10 10 6 0 10 -1 10 -3z m520
-23 c0 -8 -4 -14 -8 -14 -4 0 -8 9 -8 19 0 11 4 17 8 15 4 -3 8 -12 8 -20z
m-170 7 c0 -6 -4 -13 -10 -16 -5 -3 -10 1 -10 9 0 9 5 16 10 16 6 0 10 -4 10
-9z m-217 -42 c-8 -29 -13 -23 -13 14 0 22 3 28 9 18 5 -7 6 -22 4 -32z m1665
-50 c-2 -6 -14 8 -26 30 -13 23 -20 46 -16 52 7 13 47 -66 42 -82z m-311 59
c-3 -8 -6 -5 -6 6 -1 11 2 17 5 13 3 -3 4 -12 1 -19z m133 -47 c0 -25 -18 1
-25 34 l-6 30 15 -25 c8 -14 15 -32 16 -39z m68 23 c-4 -3 -12 5 -18 18 -12
22 -12 22 6 6 10 -10 15 -20 12 -24z m-1681 -14 c0 -22 -4 -40 -8 -40 -10 0
-11 25 -3 58 9 31 11 28 11 -18z m-442 20 c-3 -5 -12 -10 -18 -10 -7 0 -6 4 3
10 19 12 23 12 15 0z m1202 -34 c-22 -23 -27 -20 -14 8 7 15 16 21 21 16 5 -5
2 -15 -7 -24z m175 2 c-7 -7 -12 -8 -12 -2 0 14 12 26 19 19 2 -3 -1 -11 -7
-17z m-1448 -12 c-3 -9 -10 -16 -15 -16 -6 0 -5 9 1 21 13 24 24 20 14 -5z
m1934 -9 c-5 -10 -11 -17 -12 -15 -1 1 -7 10 -13 18 -9 12 -7 15 12 15 19 0
21 -3 13 -18z m872 13 c0 -5 -9 -10 -21 -10 -11 0 -17 5 -14 10 3 6 13 10 21
10 8 0 14 -4 14 -10z m210 0 c0 -5 -4 -10 -10 -10 -5 0 -10 5 -10 10 0 6 5 10
10 10 6 0 10 -4 10 -10z m-2563 -32 c-3 -7 -5 -2 -5 12 0 14 2 19 5 13 2 -7 2
-19 0 -25z m143 29 c0 -2 -10 -12 -22 -23 l-23 -19 19 23 c18 21 26 27 26 19z
m1910 -18 c0 -5 -4 -9 -10 -9 -5 0 -10 7 -10 16 0 8 5 12 10 9 6 -3 10 -10 10
-16z m340 1 c0 -5 -4 -10 -10 -10 -5 0 -10 5 -10 10 0 6 5 10 10 10 6 0 10 -4
10 -10z m-2869 -43 c-8 -8 -11 -7 -11 4 0 20 13 34 18 19 3 -7 -1 -17 -7 -23z
m203 18 c-4 -8 -8 -15 -10 -15 -2 0 -4 7 -4 15 0 8 4 15 10 15 5 0 7 -7 4 -15z
m2080 0 c-7 -18 17 -20 34 -3 7 7 12 8 12 2 0 -6 -5 -15 -12 -22 -8 -8 -8 -15
2 -27 14 -16 10 -18 -15 -9 -18 7 -38 51 -29 65 9 14 14 10 8 -6z m156 -7 c0
-6 -6 -5 -15 2 -8 7 -15 14 -15 16 0 2 7 1 15 -2 8 -4 15 -11 15 -16z m-1547
-3 c1 -6 -14 -11 -33 -13 l-35 -2 25 15 c27 15 40 15 43 0z m-923 -5 c0 -5 -4
-10 -10 -10 -5 0 -10 5 -10 10 0 6 5 10 10 10 6 0 10 -4 10 -10z m566 -31 c-3
-18 -17 -41 -29 -53 -55 -49 -67 -59 -67 -53 0 4 18 26 40 48 22 23 43 52 46
65 9 36 17 29 10 -7z m1868 -30 c-10 -17 -24 2 -24 34 l0 32 15 -29 c8 -15 12
-32 9 -37z m186 40 c0 -6 -4 -7 -10 -4 -5 3 -10 11 -10 16 0 6 5 7 10 4 6 -3
10 -11 10 -16z m-2400 1 c0 -5 -4 -10 -10 -10 -5 0 -10 5 -10 10 0 6 5 10 10
10 6 0 10 -4 10 -10z m61 -13 c-10 -9 -11 -8 -5 6 3 10 9 15 12 12 3 -3 0 -11
-7 -18z m1953 8 c3 -8 1 -15 -3 -15 -5 0 -11 7 -15 15 -3 8 -1 15 3 15 5 0 11
-7 15 -15z m-2264 -9 c0 -2 3 -13 6 -23 5 -15 4 -16 -6 -3 -6 8 -13 11 -16 5
-8 -19 -19 -31 -72 -74 -79 -65 -76 -41 4 34 62 57 84 74 84 61z m2250 -26 c0
-5 -5 -10 -11 -10 -5 0 -7 5 -4 10 3 6 8 10 11 10 2 0 4 -4 4 -10z m-714 -16
c-3 -9 -6 -22 -6 -30 0 -8 -9 -14 -20 -14 -11 0 -20 5 -20 10 0 6 7 10 15 10
8 0 14 3 14 8 -3 18 2 32 12 32 6 0 8 -7 5 -16z m822 -10 c1 -19 -2 -25 -12
-21 -8 3 -17 1 -19 -6 -2 -7 -7 -9 -11 -5 -8 7 21 58 33 58 4 0 8 -12 9 -26z
m332 6 c0 -11 -4 -20 -10 -20 -5 0 -10 9 -10 20 0 11 5 20 10 20 6 0 10 -9 10
-20z m-2603 -17 c-9 -9 -20 -14 -24 -10 -3 4 2 14 13 21 25 19 33 10 11 -11z
m127 2 c-4 -8 -8 -15 -10 -15 -2 0 -4 7 -4 15 0 8 4 15 10 15 5 0 7 -7 4 -15z
m2666 -5 c0 -5 -4 -10 -9 -10 -6 0 -13 5 -16 10 -3 6 1 10 9 10 9 0 16 -4 16
-10z m-660 -10 c0 -13 -28 -25 -38 -16 -3 4 0 11 8 16 20 13 30 12 30 0z
m-2026 -16 c3 -8 2 -12 -4 -9 -6 3 -10 10 -10 16 0 14 7 11 14 -7z m141 5 c11
-16 1 -19 -13 -3 -7 8 -8 14 -3 14 5 0 13 -5 16 -11z m1931 -14 c12 -12 12
-18 2 -35 -16 -25 -43 -28 -33 -2 5 9 8 25 9 35 0 21 3 21 22 2z m-2196 -23
c0 -5 -9 -17 -20 -27 -11 -10 -20 -28 -20 -39 0 -12 -13 -29 -29 -41 -30 -20
-51 -53 -51 -81 0 -9 -5 -12 -12 -8 -8 5 -9 2 -5 -9 5 -14 3 -15 -13 -4 -23
14 -26 27 -6 27 8 0 16 10 20 23 3 12 23 45 45 72 23 28 49 60 58 72 18 23 33
30 33 15z m250 -8 c0 -8 -5 -12 -10 -9 -6 4 -8 11 -5 16 9 14 15 11 15 -7z
m-350 -1 c0 -5 -20 -21 -44 -38 -23 -16 -50 -42 -59 -57 -11 -19 -21 -26 -32
-22 -12 5 -7 15 27 45 24 21 48 39 53 39 6 0 17 9 25 20 14 20 30 27 30 13z
m2805 -13 c3 -5 1 -10 -4 -10 -6 0 -11 5 -11 10 0 6 2 10 4 10 3 0 8 -4 11
-10z m-593 -42 c-12 -12 -25 -18 -29 -14 -4 4 3 16 17 26 32 24 40 16 12 -12z
m685 7 c21 -22 9 -30 -16 -13 -12 8 -18 18 -14 21 9 10 13 9 30 -8z m-2763
-27 c-25 -29 -48 -47 -53 -42 -5 4 59 64 67 64 3 0 -3 -10 -14 -22z m2163 -10
c-3 -8 -6 -5 -6 6 -1 11 2 17 5 13 3 -3 4 -12 1 -19z m243 -33 c0 -11 7 -31
16 -44 14 -19 14 -25 3 -32 -19 -12 -29 -11 -29 1 0 6 -7 10 -15 10 -8 0 -15
5 -15 10 0 6 7 10 15 10 10 0 15 10 15 31 0 29 -1 30 -22 15 -24 -17 -58 -21
-58 -7 0 5 12 12 27 16 24 6 26 8 10 16 -10 6 -15 14 -12 19 9 15 65 -24 65
-45z m-366 39 c21 -8 21 -24 0 -24 -10 0 -14 -6 -10 -15 3 -8 1 -15 -4 -15 -6
0 -10 7 -10 15 0 21 -42 15 -69 -10 -12 -10 -24 -15 -28 -12 -10 11 28 47 61
56 40 12 42 12 60 5z m-2134 -59 c-6 -8 -9 -19 -6 -24 6 -10 -6 -39 -30 -71
-7 -8 -15 -25 -19 -38 -11 -36 -49 -91 -62 -92 -19 0 -17 4 37 96 28 47 50 87
50 90 0 17 33 77 37 66 3 -7 0 -19 -7 -27z m895 5 c-10 -11 -20 -18 -23 -15
-3 3 3 14 13 25 10 11 20 18 23 15 3 -3 -3 -14 -13 -25z m-330 10 c-3 -5 -14
-10 -23 -10 -15 0 -15 2 -2 10 20 13 33 13 25 0z m-418 -61 c-12 -29 -30 -66
-40 -80 -23 -34 -34 -129 -15 -129 10 0 13 -16 12 -62 -3 -75 -13 -128 -25
-128 -13 0 -11 26 6 67 10 23 12 40 5 47 -5 7 -7 21 -4 33 3 11 1 24 -5 27 -6
4 -11 22 -11 40 0 17 -5 37 -11 43 -8 8 -2 26 25 65 19 30 42 70 50 89 14 34
27 52 32 46 2 -2 -7 -28 -19 -58z m1863 0 c0 -5 -4 -9 -10 -9 -5 0 -10 7 -10
16 0 8 5 12 10 9 6 -3 10 -10 10 -16z m-1695 1 c3 -5 1 -10 -4 -10 -6 0 -11 5
-11 10 0 6 2 10 4 10 3 0 8 -4 11 -10z m1879 -16 c5 -14 4 -15 -9 -4 -17 14
-19 20 -6 20 5 0 12 -7 15 -16z m270 -10 c5 -14 4 -15 -9 -4 -17 14 -19 20 -6
20 5 0 12 -7 15 -16z m-2157 -16 c-3 -8 -6 -5 -6 6 -1 11 2 17 5 13 3 -3 4
-12 1 -19z m469 1 c9 -15 -23 -10 -35 5 -10 12 -8 13 9 9 11 -3 23 -9 26 -14z
m2259 11 c3 -5 -3 -10 -15 -10 -12 0 -18 5 -15 10 3 6 10 10 15 10 5 0 12 -4
15 -10z m-2340 -10 c3 -5 1 -10 -4 -10 -6 0 -11 5 -11 10 0 6 2 10 4 10 3 0 8
-4 11 -10z m1345 6 c0 -3 -4 -8 -10 -11 -5 -3 -10 -1 -10 4 0 6 5 11 10 11 6
0 10 -2 10 -4z m778 -21 c-3 -3 -9 2 -12 12 -6 14 -5 15 5 6 7 -7 10 -15 7
-18z m-268 5 c0 -5 -2 -10 -4 -10 -3 0 -8 5 -11 10 -3 6 -1 10 4 10 6 0 11 -4
11 -10z m220 -26 c-18 -21 -24 -10 -8 15 7 12 14 17 16 11 2 -6 -2 -17 -8 -26z
m320 -6 c0 -6 -7 -5 -15 2 -8 7 -15 17 -15 22 0 6 7 5 15 -2 8 -7 15 -17 15
-22z m-2808 -10 c-7 -7 -12 -8 -12 -2 0 14 12 26 19 19 2 -3 -1 -11 -7 -17z
m2398 -45 c0 -26 -20 -12 -35 23 -8 20 -15 39 -15 43 1 11 50 -54 50 -66z
m300 37 c0 -5 -4 -10 -10 -10 -5 0 -10 5 -10 10 0 6 5 10 10 10 6 0 10 -4 10
-10z m-1821 -42 c-7 -13 -14 -18 -16 -11 -3 7 2 19 9 27 18 20 22 12 7 -16z
m1232 -1 c-16 -16 -26 0 -10 19 9 11 15 12 17 4 2 -6 -1 -17 -7 -23z m164 -21
c8 -10 11 -25 8 -32 -3 -9 2 -14 12 -14 15 0 17 -6 12 -36 -3 -20 -14 -45 -23
-55 -9 -10 -14 -25 -11 -33 4 -10 1 -13 -9 -9 -18 7 -18 21 1 39 16 17 21 54
6 54 -5 0 -8 15 -6 34 2 19 -3 46 -11 61 -8 15 -11 32 -7 39 5 7 9 4 11 -9 3
-11 10 -28 17 -39z m155 44 c0 -5 -2 -10 -4 -10 -3 0 -8 5 -11 10 -3 6 -1 10
4 10 6 0 11 -4 11 -10z m-2363 -25 c-7 -14 -20 -28 -29 -31 -10 -3 -19 -15
-19 -27 -2 -20 -2 -20 -6 2 -3 17 3 32 24 52 35 35 44 36 30 4z m2003 4 c0 -5
-6 -9 -13 -9 -7 0 -17 -8 -23 -17 -11 -18 -104 -89 -104 -79 0 19 17 38 45 52
18 8 43 28 55 44 21 27 40 32 40 9z m641 -22 c-8 -8 -11 -3 -11 19 1 25 2 27
11 11 8 -14 8 -22 0 -30z m-2951 3 c0 -5 -4 -10 -10 -10 -5 0 -10 5 -10 10 0
6 5 10 10 10 6 0 10 -4 10 -10z m228 -22 c-2 -18 -11 -39 -20 -46 -10 -7 -18
-21 -18 -31 0 -10 -9 -28 -20 -41 -11 -13 -20 -18 -20 -12 0 6 4 13 9 16 8 6
25 72 26 104 0 12 31 42 43 42 2 0 2 -15 0 -32z m397 22 c8 -13 -25 -13 -45 0
-12 8 -9 10 12 10 15 0 30 -4 33 -10z m2410 0 c3 -5 21 -8 40 -6 35 2 48 -15
24 -30 -6 -3 -9 -14 -6 -24 3 -12 -2 -20 -13 -23 -22 -6 -35 -54 -19 -73 6 -8
15 -11 20 -8 5 3 6 -3 2 -12 -5 -14 -3 -16 11 -11 9 4 15 3 12 -2 -3 -4 1 -16
8 -27 8 -10 12 -24 9 -30 -2 -7 3 -24 13 -39 9 -14 14 -28 11 -31 -9 -9 -47
38 -47 58 0 11 -11 30 -25 44 -14 14 -25 31 -25 38 0 7 -11 22 -25 34 -28 25
-40 28 -29 10 4 -7 -5 -2 -19 11 -27 24 -37 61 -17 61 6 0 10 -11 10 -25 0
-14 5 -25 10 -25 6 0 10 5 10 11 0 6 9 8 21 4 24 -8 59 19 59 46 0 10 -17 25
-42 38 -32 15 -37 21 -21 21 12 0 24 -4 28 -10z m-456 -40 c11 -22 19 -40 16
-40 -13 0 -45 42 -45 60 0 29 5 25 29 -20z m-114 -9 c-3 -17 -2 -39 4 -50 7
-13 8 -22 1 -26 -5 -3 -10 -15 -10 -26 0 -21 -12 -24 -40 -9 -17 9 -18 14 -6
48 7 20 11 43 9 50 -3 7 1 10 10 6 9 -3 16 3 20 15 8 33 19 25 12 -8z m505 19
c0 -5 -4 -10 -10 -10 -5 0 -10 5 -10 10 0 6 5 10 10 10 6 0 10 -4 10 -10z
m-2850 -20 c0 -5 -5 -10 -11 -10 -5 0 -7 5 -4 10 3 6 8 10 11 10 2 0 4 -4 4
-10z m-130 -7 c0 -5 -5 -15 -10 -23 -8 -12 -10 -11 -10 8 0 12 5 22 10 22 6 0
10 -3 10 -7z m2384 -33 c-4 -43 -22 -86 -31 -76 -4 3 -1 17 7 30 7 14 10 32 7
40 -7 18 1 46 13 46 5 0 6 -18 4 -40z m777 18 c10 -13 18 -28 19 -34 0 -6 9
-19 20 -29 20 -18 27 -45 13 -45 -9 0 -53 66 -53 79 0 5 -7 14 -15 21 -15 12
-20 30 -9 30 3 0 14 -10 25 -22z m-1116 2 c3 -5 1 -10 -4 -10 -6 0 -11 5 -11
10 0 6 2 10 4 10 3 0 8 -4 11 -10z m675 0 c0 -5 -4 -10 -10 -10 -5 0 -10 5
-10 10 0 6 5 10 10 10 6 0 10 -4 10 -10z m-399 -43 c-10 -9 -11 -8 -5 6 3 10
9 15 12 12 3 -3 0 -11 -7 -18z m453 2 c-3 -5 -10 -7 -15 -3 -5 3 -7 10 -3 15
3 5 10 7 15 3 5 -3 7 -10 3 -15z m-2748 -58 c-9 -16 -16 -38 -16 -47 0 -10 -3
-14 -6 -11 -4 4 1 33 12 64 10 32 20 50 22 41 2 -9 -4 -30 -12 -47z m214 45
c0 -8 -4 -17 -9 -21 -5 -3 -12 -19 -16 -35 -7 -32 -19 -39 -28 -17 -3 7 4 24
14 38 10 13 19 30 19 37 0 17 20 15 20 -2z m2070 -31 c0 -16 -6 -25 -15 -25
-18 0 -18 5 -5 31 14 26 20 24 20 -6z m-314 -12 c-10 -10 -19 5 -10 18 6 11 8
11 12 0 2 -7 1 -15 -2 -18z m-2036 7 c0 -5 -5 -10 -11 -10 -5 0 -7 5 -4 10 3
6 8 10 11 10 2 0 4 -4 4 -10z m2270 -15 c0 -14 -4 -25 -10 -25 -5 0 -10 -7
-10 -15 0 -8 -4 -15 -9 -15 -14 0 -33 28 -28 42 3 8 6 6 6 -5 1 -28 26 -14 29
16 4 34 22 35 22 2z m931 3 c46 -42 117 -148 100 -148 -4 0 -16 9 -26 20 -10
11 -24 20 -32 20 -16 0 -17 17 -1 22 12 4 9 10 -32 56 -46 51 -51 68 -9 30z
m-1102 -2 c12 -15 5 -46 -11 -46 -6 0 -7 7 -4 16 4 9 1 23 -5 30 -7 8 -7 14
-1 14 5 0 15 -6 21 -14z m551 4 c0 -5 -2 -10 -4 -10 -3 0 -8 5 -11 10 -3 6 -1
10 4 10 6 0 11 -4 11 -10z m-2458 -32 c-7 -7 -12 -8 -12 -2 0 14 12 26 19 19
2 -3 -1 -11 -7 -17z m1765 16 c-3 -3 -12 -4 -19 -1 -8 3 -5 6 6 6 11 1 17 -2
13 -5z m81 -39 c1 -19 -3 -37 -8 -40 -11 -7 -14 34 -4 59 9 23 11 20 12 -19z
m-1464 11 c-10 -8 -21 -12 -24 -10 -5 6 21 24 34 24 6 0 1 -6 -10 -14z m1756
-6 c0 -5 -4 -10 -10 -10 -5 0 -10 5 -10 10 0 6 5 10 10 10 6 0 10 -4 10 -10z
m530 2 c0 -10 -22 -32 -32 -32 -5 0 -3 9 4 20 13 20 28 27 28 12z m-394 -47
c-5 -21 -10 -24 -21 -15 -10 9 -16 7 -23 -7 -6 -10 -14 -15 -18 -11 -9 10 15
38 33 38 7 0 16 7 20 15 9 25 16 9 9 -20z m434 25 c0 -5 -5 -10 -11 -10 -5 0
-7 5 -4 10 3 6 8 10 11 10 2 0 4 -4 4 -10z m-763 -22 c-3 -8 -6 -5 -6 6 -1 11
2 17 5 13 3 -3 4 -12 1 -19z m-1757 4 c0 -13 -12 -22 -22 -16 -10 6 -1 24 13
24 5 0 9 -4 9 -8z m-171 -46 c-9 -8 -10 -7 -5 7 3 10 7 24 7 30 1 7 3 4 6 -7
3 -10 -1 -23 -8 -30z m86 24 c3 -5 2 -10 -4 -10 -5 0 -13 5 -16 10 -3 6 -2 10
4 10 5 0 13 -4 16 -10z m2215 -5 c0 -8 -2 -15 -4 -15 -2 0 -6 7 -10 15 -3 8
-1 15 4 15 6 0 10 -7 10 -15z m-2464 -22 c-10 -10 -19 5 -10 18 6 11 8 11 12
0 2 -7 1 -15 -2 -18z m2864 -33 c5 0 12 5 15 10 5 8 12 7 22 -1 11 -10 16 -10
23 0 5 9 8 5 8 -12 0 -35 -26 -39 -74 -12 -30 16 -40 29 -42 51 l-3 29 22 -32
c11 -18 25 -33 29 -33z m-782 39 c-2 -6 -8 -10 -13 -10 -5 0 -11 4 -13 10 -2
6 4 11 13 11 9 0 15 -5 13 -11z m916 -45 c30 -66 31 -71 11 -54 -8 7 -15 18
-15 25 0 7 -7 15 -15 19 -8 3 -15 15 -15 26 0 12 -4 18 -10 15 -5 -3 -10 1
-10 9 0 35 30 13 54 -40z m36 46 c0 -5 -4 -10 -10 -10 -5 0 -10 5 -10 10 0 6
5 10 10 10 6 0 10 -4 10 -10z m-2383 -6 c-3 -3 -12 -4 -19 -1 -8 3 -5 6 6 6
11 1 17 -2 13 -5z m1520 -16 c-3 -8 -6 -5 -6 6 -1 11 2 17 5 13 3 -3 4 -12 1
-19z m203 -15 c0 -21 -14 -15 -26 11 -11 23 -10 24 7 13 11 -7 19 -17 19 -24z
m30 33 c0 -3 -4 -8 -10 -11 -5 -3 -10 -1 -10 4 0 6 5 11 10 11 6 0 10 -2 10
-4z m134 -21 c2 -7 -1 -16 -9 -18 -8 -4 -15 3 -17 18 -5 25 16 25 26 0z
m-2486 -18 c1 -19 -4 -47 -13 -63 -8 -16 -15 -37 -15 -46 0 -9 -4 -19 -9 -23
-5 -3 -12 -19 -16 -35 -4 -17 -11 -30 -16 -30 -13 0 -11 10 6 43 8 15 19 56
26 90 10 55 25 97 32 97 2 0 4 -15 5 -33z m1987 3 c-4 -12 -9 -19 -12 -17 -3
3 -2 15 2 27 4 12 9 19 12 17 3 -3 2 -15 -2 -27z m280 20 c3 -5 1 -10 -4 -10
-6 0 -11 5 -11 10 0 6 2 10 4 10 3 0 8 -4 11 -10z m173 -49 c30 -32 33 -34 26
-11 -6 23 -5 24 10 11 18 -15 61 -91 51 -91 -2 0 -12 15 -21 33 -10 19 -19 27
-22 19 -2 -7 16 -40 41 -72 54 -70 80 -117 71 -131 -3 -6 -13 4 -22 20 -10 17
-37 56 -62 87 -36 45 -45 52 -50 38 -5 -13 -9 -4 -14 26 -5 33 -17 53 -46 81
-21 20 -36 40 -33 43 8 8 30 -9 71 -53z m608 27 c24 -18 44 -35 44 -38 0 -4
-18 -6 -39 -5 -31 0 -37 3 -29 13 8 10 6 17 -10 28 -21 14 -30 34 -15 34 3 0
25 -15 49 -32z m-856 1 c0 -6 -4 -7 -10 -4 -5 3 -10 11 -10 16 0 6 5 7 10 4 6
-3 10 -11 10 -16z m964 -12 c15 -24 -2 -34 -19 -11 -8 10 -15 23 -15 27 0 13
22 3 34 -16z m-1007 -9 c-3 -8 -6 -5 -6 6 -1 11 2 17 5 13 3 -3 4 -12 1 -19z
m127 -3 c3 -9 0 -15 -9 -15 -8 0 -15 7 -15 15 0 8 4 15 9 15 5 0 11 -7 15 -15z
m-314 -5 c0 -5 -5 -10 -11 -10 -5 0 -7 5 -4 10 3 6 8 10 11 10 2 0 4 -4 4 -10z
m380 0 c0 -5 -4 -10 -10 -10 -5 0 -10 5 -10 10 0 6 5 10 10 10 6 0 10 -4 10
-10z m180 -11 c0 -6 -4 -7 -10 -4 -5 3 -10 11 -10 16 0 6 5 7 10 4 6 -3 10
-11 10 -16z m391 8 c-1 -12 -15 -9 -19 4 -3 6 1 10 8 8 6 -3 11 -8 11 -12z
m-869 -29 c-9 -9 -12 -7 -12 12 0 19 3 21 12 12 9 -9 9 -15 0 -24z m48 3 c0
-10 -7 -22 -16 -25 -8 -3 -13 -2 -11 2 2 4 7 15 10 25 8 23 17 22 17 -2z m43
-32 c-5 -5 -8 3 -7 19 2 37 6 42 11 13 3 -13 1 -27 -4 -32z m687 41 c0 -5 -7
-7 -15 -4 -8 4 -15 8 -15 10 0 2 7 4 15 4 8 0 15 -4 15 -10z m-960 -30 c0 -11
-4 -20 -9 -20 -5 0 -7 9 -4 20 3 11 7 20 9 20 2 0 4 -9 4 -20z m724 -11 c-3
-5 -11 -3 -18 4 -18 16 -8 31 10 16 7 -6 11 -15 8 -20z m570 16 c3 -8 1 -15
-4 -15 -6 0 -10 7 -10 15 0 8 2 15 4 15 2 0 6 -7 10 -15z m-820 -31 c-19 -28
-29 -30 -38 -8 -10 25 -7 41 5 24 9 -13 11 -13 22 2 18 26 29 10 11 -18z m321
26 c3 -6 -1 -7 -9 -4 -9 3 -16 1 -16 -5 0 -6 -7 -11 -16 -11 -14 0 -14 3 -4
15 14 17 36 20 45 5z m606 -30 c5 0 9 -7 9 -15 0 -8 11 -17 25 -21 14 -3 25
-10 25 -15 0 -5 7 -6 15 -3 8 4 15 1 15 -5 0 -6 -6 -11 -14 -11 -16 0 -29 -27
-20 -42 4 -6 1 -9 -7 -6 -8 3 -16 13 -17 24 -2 10 -12 28 -22 39 -27 31 -42
64 -33 78 5 9 9 7 11 -5 2 -10 8 -18 13 -18z m-1255 -7 c-10 -10 -19 5 -10 18
6 11 8 11 12 0 2 -7 1 -15 -2 -18z m84 7 c0 -15 -7 -20 -25 -20 -16 0 -25 6
-25 15 0 18 20 20 20 3 0 -7 5 -5 11 5 13 22 19 22 19 -3z m940 4 c0 -8 -4
-12 -10 -9 -5 3 -10 10 -10 16 0 5 5 9 10 9 6 0 10 -7 10 -16z m-2897 -9 c-3
-9 -8 -14 -10 -11 -3 3 -2 9 2 15 9 16 15 13 8 -4z m1697 -30 c0 -36 -4 -47
-22 -56 -23 -12 -23 -12 -5 9 11 11 16 25 13 31 -6 10 2 61 10 61 2 0 4 -20 4
-45z m827 19 c-9 -9 -28 6 -21 18 4 6 10 6 17 -1 6 -6 8 -13 4 -17z m49 6 c8
0 11 -6 8 -15 -5 -11 -11 -12 -25 -5 -12 7 -16 16 -12 27 4 11 8 13 11 5 2 -7
10 -12 18 -12z m-2281 3 c-11 -3 -25 -9 -31 -14 -5 -4 -21 -5 -35 -1 -24 6
-24 6 6 13 36 8 92 10 60 2z m1851 -27 c-4 -19 -2 -36 3 -38 10 -3 3 -58 -8
-58 -9 0 -13 109 -5 121 11 19 16 7 10 -25z m108 18 c10 -25 -1 -29 -14 -5 -6
12 -7 21 -1 21 5 0 12 -7 15 -16z m483 -6 c-3 -8 -6 -5 -6 6 -1 11 2 17 5 13
3 -3 4 -12 1 -19z m-113 -3 c3 -8 12 -15 21 -15 17 0 19 -9 7 -28 -6 -9 -14
-4 -30 18 -12 16 -22 32 -22 35 0 11 18 4 24 -10z m-714 -13 c3 -2 -1 -7 -7
-9 -7 -3 -13 -15 -13 -28 0 -27 -15 -41 -25 -24 -4 5 -14 8 -22 4 -13 -5 -14
-3 -3 10 11 13 15 13 22 3 5 -8 6 3 2 26 -6 37 -6 38 17 31 13 -4 26 -10 29
-13z m311 -9 c-8 -15 -10 -15 -11 -2 0 17 10 32 18 25 2 -3 -1 -13 -7 -23z
m-214 -20 c-3 -10 -5 -4 -5 12 0 17 2 24 5 18 2 -7 2 -21 0 -30z m170 15 c-3
-8 -6 -5 -6 6 -1 11 2 17 5 13 3 -3 4 -12 1 -19z m-222 -8 c8 -24 -1 -40 -22
-40 -13 0 -13 3 -3 15 7 8 10 22 6 30 -3 8 -1 15 4 15 5 0 11 -9 15 -20z
m-1735 0 c0 -5 -7 -10 -16 -10 -8 0 -12 5 -9 10 3 6 10 10 16 10 5 0 9 -4 9
-10z m126 -3 c11 -11 -29 -8 -46 3 -12 8 -9 10 12 7 15 -1 30 -6 34 -10z
m1994 -8 c0 -6 -4 -7 -10 -4 -5 3 -10 11 -10 16 0 6 5 7 10 4 6 -3 10 -11 10
-16z m-2320 7 c0 -3 -4 -8 -10 -11 -5 -3 -10 -1 -10 4 0 6 5 11 10 11 6 0 10
-2 10 -4z m1784 -25 c-3 -9 -10 -31 -16 -48 -5 -18 -11 -33 -14 -33 -3 0 -2
10 1 22 6 17 4 20 -11 14 -15 -6 -14 -2 5 18 13 14 21 32 18 40 -4 10 -1 13 9
9 9 -3 13 -12 8 -22z m1144 -53 c7 -18 8 -28 1 -28 -10 0 -49 82 -49 103 0 13
29 -33 48 -75z m-2858 52 c12 -8 11 -10 -7 -10 -12 0 -30 -3 -40 -6 -16 -5
-16 -4 1 10 23 19 26 19 46 6z m2016 -44 c-4 -25 -11 -48 -16 -51 -14 -8 -21
-78 -12 -110 10 -32 1 -77 -11 -58 -4 6 -4 19 0 30 6 16 5 17 -11 3 -18 -14
-18 -12 -11 30 4 25 11 50 16 56 5 6 7 18 4 26 -4 9 1 22 9 31 9 9 13 22 10
30 -3 8 -1 18 5 22 6 3 11 16 11 27 0 12 3 19 6 15 4 -3 3 -26 0 -51z m163 17
c6 -14 9 -28 7 -31 -3 -2 -11 7 -17 22 -13 27 -29 35 -29 14 0 -6 -2 -9 -5 -6
-3 3 -3 12 1 21 8 21 29 12 43 -20z m731 27 c0 -5 -4 -10 -10 -10 -5 0 -10 5
-10 10 0 6 5 10 10 10 6 0 10 -4 10 -10z m92 -22 c-9 -9 -12 -7 -12 12 0 19 3
21 12 12 9 -9 9 -15 0 -24z m-887 -47 c-9 -8 -25 21 -25 44 0 16 3 14 15 -9 9
-16 13 -32 10 -35z m444 -22 c1 -24 -4 -39 -14 -42 -11 -5 -12 -1 -5 18 6 16
6 35 -1 52 -5 14 -7 34 -3 42 5 13 8 11 14 -9 5 -14 8 -41 9 -61z m-1049 67
c0 -11 -19 -15 -25 -6 -3 5 1 10 9 10 9 0 16 -2 16 -4z m1643 -22 c16 -14 25
-29 22 -32 -4 -4 -12 1 -19 10 -7 10 -15 16 -17 13 -3 -2 -10 5 -17 15 -17 28
-2 25 31 -6z m-357 -9 c16 -14 25 -25 19 -25 -18 1 -69 50 -52 50 2 0 17 -11
33 -25z m-1004 -3 c4 -12 -11 -37 -44 -73 -27 -30 -54 -65 -60 -79 -6 -16 -12
-20 -15 -12 -7 18 6 64 16 58 11 -7 37 22 45 51 4 13 13 22 19 20 7 -1 13 10
15 26 4 31 17 36 24 9z m478 2 c0 -8 -4 -12 -10 -9 -5 3 -10 10 -10 16 0 5 5
9 10 9 6 0 10 -7 10 -16z m175 6 c3 -5 1 -10 -4 -10 -6 0 -11 5 -11 10 0 6 2
10 4 10 3 0 8 -4 11 -10z m665 -11 c0 -11 5 -29 10 -40 6 -11 7 -19 1 -19 -5
0 -14 14 -20 31 -14 39 -14 49 -1 49 6 0 10 -9 10 -21z m-3403 -11 c-3 -8 -6
-5 -6 6 -1 11 2 17 5 13 3 -3 4 -12 1 -19z m2951 3 c3 -8 -1 -12 -9 -9 -7 2
-15 10 -17 17 -3 8 1 12 9 9 7 -2 15 -10 17 -17z m400 -6 c-3 -3 -9 2 -12 12
-6 14 -5 15 5 6 7 -7 10 -15 7 -18z m-3172 -33 c-12 -11 -18 7 -10 30 l8 23 4
-23 c2 -13 1 -26 -2 -30z m2201 26 c-3 -8 -6 -5 -6 6 -1 11 2 17 5 13 3 -3 4
-12 1 -19z m-37 4 c0 -5 -7 -17 -15 -28 -14 -19 -14 -19 -15 2 0 11 3 24 7 27
9 10 23 9 23 -1z m-420 -12 c0 -5 -4 -10 -10 -10 -5 0 -10 5 -10 10 0 6 5 10
10 10 6 0 10 -4 10 -10z m-1580 -6 c0 -15 -32 -35 -47 -29 -15 5 -14 8 7 20
28 15 40 18 40 9z m1880 -9 c0 -9 9 -15 22 -15 17 0 19 -3 10 -12 -9 -9 -16
-7 -33 8 -16 14 -20 15 -18 4 2 -8 -3 -34 -10 -58 -11 -33 -12 -45 -3 -51 13
-8 19 -86 9 -113 -4 -10 -9 -25 -12 -33 -2 -8 -9 -15 -16 -15 -7 0 -8 6 -3 18
4 9 9 38 10 65 2 41 1 45 -12 32 -10 -9 -12 -23 -8 -41 5 -18 3 -25 -4 -20 -6
3 -12 -3 -14 -14 -5 -32 -20 -29 -24 5 -2 18 6 46 21 71 23 40 24 44 11 95
-14 54 -14 54 5 30 19 -23 19 -23 19 -2 0 14 4 20 11 15 7 -4 10 -1 7 7 -5 14
11 38 25 39 4 0 7 -7 7 -15z m332 -17 c-9 -9 -12 -7 -12 12 0 19 3 21 12 12 9
-9 9 -15 0 -24z m628 22 c0 -5 -2 -10 -4 -10 -3 0 -8 5 -11 10 -3 6 -1 10 4
10 6 0 11 -4 11 -10z m210 -26 c0 -3 -7 -1 -15 6 -8 7 -15 17 -15 22 0 5 7 3
15 -6 8 -8 15 -18 15 -22z m-1431 -10 c-5 -6 -8 -41 -7 -76 2 -44 -1 -70 -11
-82 -19 -23 -24 -14 -11 20 11 28 11 28 -9 10 -13 -12 -20 -30 -19 -50 0 -17
-3 -42 -7 -56 l-9 -25 -7 30 c-4 17 -7 40 -8 52 -1 24 46 86 60 77 12 -7 11 3
-3 25 -9 14 -7 28 8 64 11 27 22 41 26 34 4 -6 2 -17 -3 -23z m153 14 c-7 -7
-12 -8 -12 -2 0 14 12 26 19 19 2 -3 -1 -11 -7 -17z m244 -6 c-18 -16 -18 -16
-6 6 6 13 14 21 18 18 3 -4 -2 -14 -12 -24z m80 -29 c4 -13 0 -29 -9 -38 -14
-13 -15 -12 -14 17 1 18 -2 44 -6 58 -8 24 -8 24 8 5 9 -11 18 -30 21 -42z
m25 45 c1 -7 3 -31 5 -52 1 -21 -1 -35 -5 -30 -12 13 -21 94 -10 94 5 0 9 -6
10 -12z m194 2 c3 -5 1 -10 -4 -10 -6 0 -11 5 -11 10 0 6 2 10 4 10 3 0 8 -4
11 -10z m-2530 -10 c3 -5 1 -10 -4 -10 -6 0 -11 5 -11 10 0 6 2 10 4 10 3 0 8
-4 11 -10z m310 0 c-3 -5 -14 -10 -23 -9 -14 0 -13 2 3 9 27 11 27 11 20 0z
m3063 -20 c15 0 15 -13 0 -28 -9 -9 -16 -6 -30 16 -23 35 -23 50 0 29 10 -10
24 -17 30 -17z m-3318 15 c0 -15 -31 -63 -54 -82 -24 -21 -26 -21 -26 -5 0 11
12 24 26 30 14 7 24 19 23 30 -1 9 -1 20 0 25 1 8 31 10 31 2z m3247 -37 c-3
-7 -5 -2 -5 12 0 14 2 19 5 13 2 -7 2 -19 0 -25z m-1309 -52 c-5 -6 -12 -6
-20 2 -9 9 -8 18 2 39 l13 28 7 -30 c4 -16 3 -34 -2 -39z m976 38 c6 -15 4
-15 -11 -3 -10 7 -20 15 -22 16 -2 2 3 3 11 3 9 0 19 -7 22 -16z m433 9 c-9
-9 33 -54 44 -47 5 3 9 -5 9 -18 0 -13 5 -29 12 -36 9 -9 9 -12 0 -12 -6 0
-19 12 -29 26 -10 14 -26 35 -36 46 -17 18 -17 48 -1 48 4 0 4 -3 1 -7z m-987
-13 c0 -6 11 -22 24 -35 14 -14 21 -27 16 -30 -9 -5 -60 50 -60 66 0 5 5 9 10
9 6 0 10 -5 10 -10z m-718 -22 c-7 -7 -12 -8 -12 -2 0 14 12 26 19 19 2 -3 -1
-11 -7 -17z m58 3 c-16 -31 -32 -36 -18 -7 6 14 15 26 20 26 5 0 4 -9 -2 -19z
m1574 -8 c3 -10 9 -25 12 -33 4 -8 -3 -5 -15 7 -22 23 -28 43 -12 43 5 0 11
-8 15 -17z m-3421 -13 c-5 -19 -23 -29 -23 -12 0 7 20 32 26 32 1 0 0 -9 -3
-20z m4217 -10 c8 -16 7 -18 -4 -14 -8 3 -16 14 -19 25 -6 23 9 16 23 -11z
m-2196 -21 c3 -19 5 -38 5 -43 1 -4 10 -6 22 -3 18 5 18 3 7 -11 -7 -9 -17
-20 -22 -23 -5 -4 -5 -12 -1 -18 5 -9 10 -9 21 0 33 27 11 -10 -31 -52 -19
-20 -19 -20 3 -26 15 -3 21 -11 18 -20 -3 -8 -6 -19 -6 -24 0 -6 -4 -7 -10 -4
-5 3 -10 15 -10 26 0 10 -3 19 -7 19 -11 0 -73 -72 -73 -85 0 -7 -7 -26 -15
-41 -8 -16 -15 -37 -15 -46 0 -9 -4 -19 -8 -22 -4 -2 -8 21 -8 52 0 53 2 58
48 103 26 26 48 52 48 58 0 6 4 11 10 11 5 0 7 13 4 30 -5 22 -2 31 10 36 9 3
16 13 16 21 0 10 -6 13 -16 9 -14 -5 -16 -1 -10 31 3 21 6 44 6 52 0 25 10 5
14 -30z m266 20 c-7 -11 -14 -18 -17 -15 -3 3 0 12 7 21 18 21 23 19 10 -6z
m-2100 -14 c-15 -17 -40 -20 -40 -4 0 6 7 9 15 5 8 -3 15 -1 15 4 0 6 5 10 11
10 8 0 8 -5 -1 -15z m2290 -6 c0 -5 -9 -9 -20 -9 -11 0 -20 4 -20 8 0 4 9 8
20 9 11 1 20 -2 20 -8z m888 -24 c14 -29 -2 -34 -18 -6 -12 24 -13 31 -2 31 5
0 14 -11 20 -25z m-1288 5 c0 -5 -5 -10 -11 -10 -5 0 -7 5 -4 10 3 6 8 10 11
10 2 0 4 -4 4 -10z m-424 -27 c-10 -10 -19 5 -10 18 6 11 8 11 12 0 2 -7 1
-15 -2 -18z m164 7 c0 -5 -5 -10 -11 -10 -5 0 -7 5 -4 10 3 6 8 10 11 10 2 0
4 -4 4 -10z m450 -22 c0 -13 -4 -29 -9 -37 -6 -10 -9 -2 -9 23 0 20 4 36 9 36
5 0 9 -10 9 -22z m74 6 c17 -17 21 -44 7 -44 -5 0 -14 14 -20 30 -11 34 -9 37
13 14z m76 -15 c0 -6 -5 -7 -10 -4 -6 4 -19 1 -28 -6 -13 -11 -13 -9 2 8 18
22 36 22 36 2z m305 -27 c-7 -7 -45 29 -45 41 0 6 11 0 25 -13 14 -13 23 -26
20 -28z m-2075 34 c0 -3 -4 -8 -10 -11 -5 -3 -10 -1 -10 4 0 6 5 11 10 11 6 0
10 -2 10 -4z m900 -6 c0 -5 -5 -10 -11 -10 -5 0 -7 5 -4 10 3 6 8 10 11 10 2
0 4 -4 4 -10z m237 4 c-3 -3 -12 -4 -19 -1 -8 3 -5 6 6 6 11 1 17 -2 13 -5z
m1950 -26 c-3 -8 -6 -5 -6 6 -1 11 2 17 5 13 3 -3 4 -12 1 -19z m548 12 c3 -5
1 -10 -4 -10 -6 0 -11 5 -11 10 0 6 2 10 4 10 3 0 8 -4 11 -10z m-3735 -8 c0
-10 -70 -45 -77 -39 -4 5 58 47 70 47 4 0 7 -4 7 -8z m2709 -23 c21 -22 31
-27 36 -18 5 7 1 17 -8 24 -9 7 -14 15 -10 18 12 13 22 7 29 -15 10 -35 45
-111 57 -126 6 -8 12 -23 14 -34 2 -14 -11 -5 -47 30 -27 27 -50 55 -50 62 0
7 -7 10 -16 6 -12 -5 -14 -1 -9 15 5 16 0 27 -21 45 -16 13 -23 23 -16 24 7 0
26 -14 41 -31z m-945 -38 c-8 -14 -14 -31 -14 -37 0 -6 -6 -17 -14 -23 -11 -9
-13 -6 -11 20 1 17 9 39 18 50 10 11 12 21 6 24 -5 4 -7 11 -3 16 3 6 11 3 19
-7 10 -14 10 -22 -1 -43z m506 55 c0 -11 -19 -15 -25 -6 -3 5 1 10 9 10 9 0
16 -2 16 -4z m-931 -84 c-10 -35 -14 -41 -19 -26 -4 10 0 39 9 64 20 58 28 27
10 -38z m91 57 c0 -5 -4 -9 -10 -9 -5 0 -10 7 -10 16 0 8 5 12 10 9 6 -3 10
-10 10 -16z m230 0 c0 -6 -4 -7 -10 -4 -5 3 -10 11 -10 16 0 6 5 7 10 4 6 -3
10 -11 10 -16z m1656 -6 c4 -16 15 -39 26 -52 22 -29 23 -41 3 -41 -19 0 -19
-7 0 -27 8 -8 13 -19 10 -24 -4 -5 -1 -9 4 -9 6 0 11 5 11 10 0 6 5 10 11 10
8 0 7 -6 -2 -17 -11 -13 -11 -17 -1 -21 10 -3 10 -7 0 -19 -10 -13 -9 -18 7
-32 11 -9 27 -25 35 -35 15 -19 14 -19 -16 -3 -35 18 -70 63 -53 69 7 2 2 22
-13 52 -17 37 -20 50 -10 54 9 3 10 8 3 16 -17 20 -41 96 -31 96 5 0 13 -12
16 -27z m334 17 c0 -5 -4 -10 -10 -10 -5 0 -10 5 -10 10 0 6 5 10 10 10 6 0
10 -4 10 -10z m-1778 -42 c-10 -22 -11 -21 -11 12 -1 26 2 31 11 22 8 -8 8
-17 0 -34z m678 21 c0 -6 -4 -7 -10 -4 -5 3 -10 11 -10 16 0 6 5 7 10 4 6 -3
10 -11 10 -16z m670 -25 c0 -6 7 -17 16 -24 8 -8 20 -22 25 -32 9 -17 8 -18
-8 -7 -21 13 -63 81 -63 101 1 16 30 -21 30 -38z m149 -9 c0 -5 -6 -1 -14 9
-8 11 -15 27 -15 35 1 17 29 -26 29 -44z m-1978 6 c-23 -23 -28 -12 -10 21 7
13 14 17 21 10 7 -7 3 -17 -11 -31z m1219 -18 c0 -7 -5 -13 -12 -13 -6 0 -9 3
-5 6 3 4 -1 21 -9 38 l-15 31 20 -25 c11 -14 21 -31 21 -37z m-688 25 c-7 -7
-12 -8 -12 -2 0 14 12 26 19 19 2 -3 -1 -11 -7 -17z m523 12 c3 -5 -1 -10 -9
-10 -9 0 -16 5 -16 10 0 6 4 10 9 10 6 0 13 -4 16 -10z m-2225 -6 c0 -3 -7
-12 -15 -21 -20 -19 -32 -10 -14 11 14 15 29 21 29 10z m950 -58 c-18 -35 -26
-42 -43 -38 l-20 5 20 17 c11 9 29 32 38 51 10 19 20 28 22 22 3 -7 -5 -32
-17 -57z m60 -26 c-12 -23 7 -40 22 -19 7 11 8 9 5 -6 -2 -11 -9 -19 -15 -17
-7 1 -12 -7 -12 -19 0 -11 5 -17 10 -14 6 3 10 -2 10 -12 0 -16 -2 -15 -21 3
-26 27 -35 91 -18 140 l13 39 8 -38 c5 -23 4 -46 -2 -57z m1460 75 c0 -12 -19
-12 -23 0 -4 9 -1 12 9 8 7 -3 14 -7 14 -8z m-1090 -26 c0 -10 -4 -19 -9 -19
-5 0 -11 -8 -13 -17 -3 -10 -5 1 -5 24 0 31 3 40 13 36 8 -3 14 -14 14 -24z
m530 -7 c0 -6 4 -12 9 -14 4 -1 18 -25 30 -53 l22 -49 -26 24 c-14 13 -25 28
-25 34 0 6 -9 28 -20 49 -24 44 -25 54 -5 33 8 -8 15 -19 15 -24z m-717 13
c-3 -9 -8 -14 -10 -11 -3 3 -2 9 2 15 9 16 15 13 8 -4z m137 -7 c0 -19 -2 -20
-10 -8 -13 19 -13 30 0 30 6 0 10 -10 10 -22z m940 -33 c0 -18 -1 -18 -16 3
-8 12 -12 27 -8 33 8 14 24 -8 24 -36z m1190 35 c0 -5 -4 -10 -10 -10 -5 0
-10 5 -10 10 0 6 5 10 10 10 6 0 10 -4 10 -10z m-1996 -16 c3 -8 2 -12 -4 -9
-6 3 -10 10 -10 16 0 14 7 11 14 -7z m406 -9 c7 -9 8 -15 2 -15 -5 0 -12 7
-16 15 -3 8 -4 15 -2 15 2 0 9 -7 16 -15z m-800 -10 c-7 -9 -15 -13 -19 -10
-3 3 1 10 9 15 21 14 24 12 10 -5z m388 -27 c-9 -6 -10 -10 -2 -15 16 -11 26
-61 14 -68 -6 -4 -10 6 -10 24 0 30 -21 54 -28 33 -2 -7 -8 -12 -13 -12 -12 0
-11 37 2 61 10 20 11 20 30 3 15 -13 17 -19 7 -26z m99 20 c-3 -8 -6 -5 -6 6
-1 11 2 17 5 13 3 -3 4 -12 1 -19z m-203 -30 c6 -4 6 -11 -2 -21 -7 -7 -8 -17
-4 -21 6 -6 11 -76 5 -76 -1 0 -8 3 -17 6 -17 7 -22 44 -6 44 6 0 10 5 10 10
0 6 -6 9 -12 8 -7 -2 -13 5 -12 15 4 82 4 83 16 62 6 -11 16 -23 22 -27z
m2146 32 c0 -5 -2 -10 -4 -10 -3 0 -8 5 -11 10 -3 6 -1 10 4 10 6 0 11 -4 11
-10z m-3950 -10 c-8 -5 -19 -10 -25 -10 -5 0 -3 5 5 10 8 5 20 10 25 10 6 0 3
-5 -5 -10z m1741 -53 c-11 -12 -21 -16 -21 -9 0 7 5 12 11 12 7 0 9 10 5 26
-7 25 -6 25 10 9 16 -15 16 -18 -5 -38z m1234 33 c26 -29 14 -33 -14 -4 -13
13 -19 24 -14 24 6 0 18 -9 28 -20z m354 -44 c0 -20 -1 -20 -9 2 -5 12 -16 25
-25 28 -8 4 -15 13 -15 22 0 12 6 10 25 -8 14 -13 25 -33 24 -44z m109 43 c19
-30 11 -32 -11 -3 -10 13 -14 24 -10 24 5 0 14 -9 21 -21z m577 -17 c-6 -6
-34 11 -39 24 -4 11 0 10 18 -3 13 -10 23 -19 21 -21z m-1955 -31 c0 -12 -6
-9 -20 9 -26 34 -26 60 0 30 11 -13 20 -30 20 -39z m105 49 c3 -5 1 -10 -4
-10 -6 0 -11 5 -11 10 0 6 2 10 4 10 3 0 8 -4 11 -10z m59 -6 c3 -8 2 -12 -4
-9 -6 3 -10 10 -10 16 0 14 7 11 14 -7z m66 -10 c0 -20 18 -18 22 4 4 15 5 15
15 -3 16 -30 26 -95 14 -95 -12 0 -25 56 -16 71 6 8 2 8 -14 0 -11 -7 -21 -21
-21 -33 0 -12 -3 -18 -7 -14 -11 11 -12 97 -2 90 5 -3 9 -12 9 -20z m1231 4
c11 -21 11 -22 -4 -9 -10 7 -17 17 -17 22 0 15 9 10 21 -13z m179 -25 c0 -12
5 -25 10 -28 12 -8 13 -45 1 -45 -5 0 -12 17 -16 38 -3 20 -9 48 -11 62 -5 20
-3 22 5 10 6 -8 11 -25 11 -37z m-2416 22 c-4 -8 -8 -15 -10 -15 -2 0 -4 7 -4
15 0 8 4 15 10 15 5 0 7 -7 4 -15z m46 6 c0 -5 -6 -14 -14 -20 -12 -10 -13 -8
-9 8 5 21 23 30 23 12z m76 -56 c1 -37 -1 -43 -12 -34 -12 9 -13 6 -8 -19 7
-35 -13 -55 -28 -28 -9 16 -11 16 -24 -1 -12 -16 -13 -16 -14 -2 0 18 23 42
32 33 3 -3 9 0 14 7 4 8 3 10 -4 5 -7 -4 -12 -2 -12 3 0 6 4 11 8 11 5 0 16
16 25 35 9 19 18 35 19 35 2 0 4 -20 4 -45z m1284 35 c0 -5 -5 -10 -11 -10 -5
0 -7 5 -4 10 3 6 8 10 11 10 2 0 4 -4 4 -10z m1280 0 c0 -5 -2 -10 -4 -10 -3
0 -8 5 -11 10 -3 6 -1 10 4 10 6 0 11 -4 11 -10z m-1490 -24 c0 -8 6 -16 13
-19 6 -2 9 -8 4 -12 -4 -5 -14 0 -22 11 -17 23 -19 34 -5 34 6 0 10 -6 10 -14z
m-1220 -27 c0 -6 -4 -7 -10 -4 -5 3 -10 11 -10 16 0 6 5 7 10 4 6 -3 10 -11
10 -16z m1150 -12 c0 -18 -2 -19 -10 -7 -13 20 -13 43 0 35 6 -3 10 -16 10
-28z m-714 -4 c-10 -10 -19 5 -10 18 6 11 8 11 12 0 2 -7 1 -15 -2 -18z m1399
17 c3 -5 1 -10 -4 -10 -6 0 -11 5 -11 10 0 6 2 10 4 10 3 0 8 -4 11 -10z
m-1873 -32 c-8 -8 -9 -4 -5 13 4 13 8 18 11 10 2 -7 -1 -18 -6 -23z m428 23
c0 -6 -4 -13 -10 -16 -5 -3 -10 1 -10 9 0 9 5 16 10 16 6 0 10 -4 10 -9z m400
-28 c0 -18 -17 -16 -24 3 -8 22 4 40 15 23 5 -8 9 -20 9 -26z m-208 -8 c-2
-19 -7 -35 -11 -35 -4 0 -5 16 -3 35 2 19 7 35 11 35 4 0 5 -16 3 -35z m85 13
c-3 -8 -6 -5 -6 6 -1 11 2 17 5 13 3 -3 4 -12 1 -19z m683 -10 c0 -12 -6 -9
-26 13 -19 22 -19 22 4 8 12 -8 22 -17 22 -21z m-1878 0 c-7 -7 -12 -8 -12 -2
0 6 3 14 7 17 3 4 9 5 12 2 2 -3 -1 -11 -7 -17z m948 0 c0 -7 -7 -22 -16 -33
-13 -17 -16 -18 -24 -5 -16 25 -12 47 3 25 13 -17 14 -17 20 4 6 23 17 29 17
9z m607 -25 c-3 -10 -5 -4 -5 12 0 17 2 24 5 18 2 -7 2 -21 0 -30z m1253 18
c0 -11 3 -28 6 -38 6 -14 4 -16 -6 -6 -15 14 -21 63 -8 63 4 0 8 -9 8 -19z
m-1531 -55 c-9 -8 -10 -7 -5 7 3 10 7 24 7 30 1 7 3 4 6 -7 3 -10 -1 -23 -8
-30z m494 31 c-3 -5 -2 -12 3 -16 5 -3 24 -28 43 -56 28 -42 30 -47 11 -34
-32 21 -85 116 -65 116 8 0 11 -5 8 -10z m1367 9 c0 -3 -4 -8 -10 -11 -5 -3
-10 -1 -10 4 0 6 5 11 10 11 6 0 10 -2 10 -4z m-1470 -16 c0 -5 -5 -10 -11
-10 -5 0 -7 5 -4 10 3 6 8 10 11 10 2 0 4 -4 4 -10z m-1088 -32 c-7 -7 -12 -8
-12 -2 0 14 12 26 19 19 2 -3 -1 -11 -7 -17z m58 7 c0 -8 -4 -15 -10 -15 -5 0
-10 7 -10 15 0 8 5 15 10 15 6 0 10 -7 10 -15z m927 -23 c12 -13 18 -42 8 -42
-7 0 -35 58 -34 72 0 9 2 8 6 -2 4 -8 12 -21 20 -28z m118 18 c3 -5 1 -10 -4
-10 -6 0 -11 5 -11 10 0 6 2 10 4 10 3 0 8 -4 11 -10z m750 -1 c11 -16 1 -19
-13 -3 -7 8 -8 14 -3 14 5 0 13 -5 16 -11z m-1605 -40 c-10 -34 -20 -50 -20
-31 0 14 18 62 24 62 3 0 1 -14 -4 -31z m172 -1 c-13 -26 -17 -29 -20 -15 -2
10 2 24 8 32 22 26 29 16 12 -17z m85 10 c-3 -8 -6 -5 -6 6 -1 11 2 17 5 13 3
-3 4 -12 1 -19z m1833 12 c0 -5 -4 -10 -10 -10 -5 0 -10 5 -10 10 0 6 5 10 10
10 6 0 10 -4 10 -10z m50 0 c0 -5 -2 -10 -4 -10 -3 0 -8 5 -11 10 -3 6 -1 10
4 10 6 0 11 -4 11 -10z m-2238 -36 c-9 -16 -10 -14 -9 8 1 15 6 23 11 18 4 -4
4 -16 -2 -26z m1333 26 c3 -5 1 -10 -4 -10 -6 0 -11 5 -11 10 0 6 2 10 4 10 3
0 8 -4 11 -10z m770 -26 c18 -43 18 -44 6 -44 -8 0 -31 52 -31 71 0 19 10 7
25 -27z m-2373 4 c-7 -7 -12 -8 -12 -2 0 14 12 26 19 19 2 -3 -1 -11 -7 -17z
m178 18 c0 -3 -4 -8 -10 -11 -5 -3 -10 -1 -10 4 0 6 5 11 10 11 6 0 10 -2 10
-4z m1830 -6 c0 -5 -4 -10 -10 -10 -5 0 -10 5 -10 10 0 6 5 10 10 10 6 0 10
-4 10 -10z m-1890 -10 c0 -5 -5 -10 -11 -10 -5 0 -7 5 -4 10 3 6 8 10 11 10 2
0 4 -4 4 -10z m2710 0 c0 -5 -2 -10 -4 -10 -3 0 -8 5 -11 10 -3 6 -1 10 4 10
6 0 11 -4 11 -10z m-830 -31 c0 -6 -4 -7 -10 -4 -5 3 -10 11 -10 16 0 6 5 7
10 4 6 -3 10 -11 10 -16z m-2098 -11 c-7 -7 -12 -8 -12 -2 0 6 3 14 7 17 3 4
9 5 12 2 2 -3 -1 -11 -7 -17z m2422 -40 c28 -51 32 -63 16 -53 -6 4 -20 28
-32 53 -12 26 -23 52 -26 57 -14 29 20 -16 42 -57z m561 26 c23 -35 0 -30 -25
6 -15 21 -17 28 -6 24 8 -3 22 -17 31 -30z m-2671 -40 c-33 -83 -57 -129 -61
-117 -5 14 65 169 72 161 3 -3 -2 -22 -11 -44z m1870 -3 c-7 -7 -34 28 -34 43
1 6 10 0 21 -13 11 -13 17 -27 13 -30z m586 17 c0 -6 -7 -5 -15 2 -8 7 -15 17
-15 22 0 6 7 5 15 -2 8 -7 15 -17 15 -22z m-960 -45 c-1 -10 -39 39 -40 51 0
5 9 -3 20 -17 11 -14 20 -29 20 -34z m813 22 c9 -19 21 -35 26 -35 11 0 35
-96 27 -109 -3 -5 -1 -11 6 -13 8 -3 8 -9 -1 -24 -10 -15 -11 -15 -7 -1 3 9 1
17 -5 17 -19 0 -44 33 -56 72 -8 30 -8 38 0 35 7 -2 14 -12 16 -23 2 -10 9
-28 17 -38 12 -17 13 -16 11 17 -2 21 -10 46 -20 57 -9 11 -17 25 -17 31 0 8
-4 8 -14 0 -11 -9 -13 -5 -12 19 1 39 9 38 29 -5z m-367 -33 c-4 -3 -13 3 -21
14 -22 28 -18 37 6 13 11 -11 18 -23 15 -27z m-810 1 c-11 -11 -19 6 -11 24 8
17 8 17 12 0 3 -10 2 -21 -1 -24z m-1076 15 c0 -19 -18 -44 -25 -36 -4 3 0 15
7 27 15 24 18 26 18 9z m2361 -38 c5 0 9 -7 9 -15 0 -8 -4 -15 -10 -15 -15 0
-32 40 -24 58 6 14 8 14 11 -5 3 -13 9 -23 14 -23z m-2711 21 c0 -5 -7 -12
-16 -15 -14 -5 -15 -4 -4 9 14 17 20 19 20 6z m-870 -11 c0 -5 -4 -10 -10 -10
-5 0 -10 5 -10 10 0 6 5 10 10 10 6 0 10 -4 10 -10z m3200 0 c0 -5 -5 -10 -11
-10 -5 0 -7 5 -4 10 3 6 8 10 11 10 2 0 4 -4 4 -10z m113 -20 c3 -11 1 -18 -4
-14 -5 3 -9 12 -9 20 0 20 7 17 13 -6z m-2330 -5 c-3 -9 -8 -14 -10 -11 -3 3
-2 9 2 15 9 16 15 13 8 -4z m1751 -25 c-6 -5 -24 21 -24 34 0 6 6 1 14 -10 8
-10 12 -21 10 -24z m-1682 8 c-7 -7 -12 -8 -12 -2 0 14 12 26 19 19 2 -3 -1
-11 -7 -17z m128 16 c0 -3 -6 -18 -14 -32 -20 -40 -33 -72 -50 -122 -11 -33
-16 -41 -21 -28 -8 20 27 129 53 164 16 22 32 31 32 18z m2145 -76 c8 -21 14
-38 12 -38 -6 0 -77 106 -77 116 0 18 50 -42 65 -78z m-2663 40 c-7 -7 -12 -8
-12 -2 0 6 3 14 7 17 3 4 9 5 12 2 2 -3 -1 -11 -7 -17z m3036 -3 c-3 -3 -9 2
-12 12 -6 14 -5 15 5 6 7 -7 10 -15 7 -18z m-342 -1 c-3 -9 1 -25 9 -37 17
-24 19 -37 7 -37 -16 0 -34 47 -27 69 3 11 9 21 12 21 3 0 2 -7 -1 -16z m224
6 c0 -5 -4 -10 -10 -10 -5 0 -10 5 -10 10 0 6 5 10 10 10 6 0 10 -4 10 -10z
m136 -37 c16 -21 18 -43 4 -43 -5 0 -10 7 -10 15 0 8 -4 15 -9 15 -5 0 -11 7
-15 15 -8 21 14 19 30 -2z m-2866 3 c0 -3 -4 -8 -10 -11 -5 -3 -10 -1 -10 4 0
6 5 11 10 11 6 0 10 -2 10 -4z m200 -12 c0 -8 -5 -12 -10 -9 -6 4 -8 11 -5 16
9 14 15 11 15 -7z m-658 -16 c-7 -7 -12 -8 -12 -2 0 6 3 14 7 17 3 4 9 5 12 2
2 -3 -1 -11 -7 -17z m698 12 c0 -5 -5 -10 -11 -10 -5 0 -7 5 -4 10 3 6 8 10
11 10 2 0 4 -4 4 -10z m2383 -20 c-3 -12 -8 -19 -11 -16 -5 6 5 36 12 36 2 0
2 -9 -1 -20z m-2422 -27 c-8 -15 -10 -15 -11 -2 0 17 10 32 18 25 2 -3 -1 -13
-7 -23z m2334 -33 c7 -24 7 -24 -9 -5 -8 11 -16 27 -16 35 0 20 16 1 25 -30z
m-2552 2 c-3 -12 -10 -22 -15 -22 -5 0 -7 3 -5 8 2 4 7 16 11 26 9 25 17 16 9
-12z m2667 -15 c0 -5 -4 -5 -10 -2 -5 3 -10 14 -10 23 0 15 2 15 10 2 5 -8 10
-19 10 -23z m260 19 c0 -3 -4 -8 -10 -11 -5 -3 -10 -1 -10 4 0 6 5 11 10 11 6
0 10 -2 10 -4z m-2775 -36 c3 -5 1 -10 -4 -10 -6 0 -11 5 -11 10 0 6 2 10 4
10 3 0 8 -4 11 -10z m2531 -37 c-10 -10 -19 5 -10 18 6 11 8 11 12 0 2 -7 1
-15 -2 -18z m-246 -18 c20 -24 6 -28 -15 -5 -10 11 -13 20 -8 20 6 0 16 -7 23
-15z m340 -37 c0 -17 -10 -6 -25 25 l-16 32 20 -25 c11 -14 21 -28 21 -32z
m-2553 10 c-3 -8 -6 -5 -6 6 -1 11 2 17 5 13 3 -3 4 -12 1 -19z m2443 -8 c7
-13 7 -20 1 -20 -6 0 -15 9 -21 20 -7 13 -7 20 -1 20 6 0 15 -9 21 -20z m-35
-82 c8 -21 14 -38 12 -38 -6 0 -77 106 -77 116 0 18 50 -42 65 -78z m31 36
c-3 -9 1 -25 9 -37 17 -24 19 -37 7 -37 -16 0 -34 47 -27 69 3 11 9 21 12 21
3 0 2 -7 -1 -16z m180 -61 c-4 -4 -14 1 -22 11 -22 31 -17 43 8 19 12 -13 18
-26 14 -30z m-2691 -33 c-9 -18 -18 -30 -21 -27 -2 2 2 17 11 33 8 16 15 36
16 44 1 11 2 11 6 -2 2 -9 -3 -31 -12 -48z m-928 8 c-3 -8 -6 -5 -6 6 -1 11 2
17 5 13 3 -3 4 -12 1 -19z m3583 -53 c0 -5 -5 -3 -10 5 -5 8 -10 20 -10 25 0
6 5 3 10 -5 5 -8 10 -19 10 -25z m-250 -59 c0 -3 -4 -8 -10 -11 -5 -3 -10 -1
-10 4 0 6 5 11 10 11 6 0 10 -2 10 -4z m-2193 -38 c-3 -8 -6 -5 -6 6 -1 11 2
17 5 13 3 -3 4 -12 1 -19z m2593 -27 c-1 -13 -4 -12 -15 3 -8 11 -15 27 -15
35 1 13 4 12 15 -3 8 -11 15 -27 15 -35z m-190 9 c0 -5 -4 -10 -10 -10 -5 0
-10 5 -10 10 0 6 5 10 10 10 6 0 10 -4 10 -10z m183 -43 c4 3 19 -6 34 -21 28
-29 39 -81 21 -103 -5 -7 -6 -18 -2 -25 4 -7 -1 -5 -12 4 -13 11 -24 14 -30 8
-5 -5 -22 2 -44 20 -19 16 -29 30 -22 30 6 0 12 -5 12 -10 0 -7 6 -8 17 -1 13
7 21 5 30 -7 19 -25 16 3 -4 41 -9 18 -18 37 -19 42 -1 6 -5 19 -9 30 -6 19
-6 19 8 3 8 -10 17 -15 20 -11z m-129 -59 c-4 -6 -10 -5 -15 3 -14 22 -10 33
6 19 8 -7 12 -17 9 -22z m-3457 -20 c-3 -8 -6 -5 -6 6 -1 11 2 17 5 13 3 -3 4
-12 1 -19z m3558 12 c3 -5 1 -10 -4 -10 -6 0 -11 5 -11 10 0 6 2 10 4 10 3 0
8 -4 11 -10z m-108 -32 c-3 -8 -6 -5 -6 6 -1 11 2 17 5 13 3 -3 4 -12 1 -19z
m220 16 c-3 -4 -2 -16 4 -28 10 -20 9 -20 -5 -2 -14 17 -13 36 1 36 4 0 3 -3
0 -6z m-64 -99 c9 -22 -8 -26 -21 -4 -10 15 -10 19 2 19 8 0 16 -7 19 -15z
m-2626 -17 c-3 -8 -6 -5 -6 6 -1 11 2 17 5 13 3 -3 4 -12 1 -19z m2643 -33 c0
-8 -4 -15 -10 -15 -5 0 -10 7 -10 15 0 8 5 15 10 15 6 0 10 -7 10 -15z m-20
-65 c7 -13 7 -20 1 -20 -6 0 -15 9 -21 20 -7 13 -7 20 -1 20 6 0 15 -9 21 -20z
m-67 -28 c16 -17 51 -92 43 -92 -3 0 -44 58 -69 97 -12 19 8 16 26 -5z m63
-18 c-3 -9 1 -25 9 -37 17 -24 19 -37 7 -37 -16 0 -34 47 -27 69 3 11 9 21 12
21 3 0 2 -7 -1 -16z m-4326 -48 c0 -11 -19 -15 -25 -6 -3 5 1 10 9 10 9 0 16
-2 16 -4z m-50 -21 c-7 -8 -22 -15 -34 -15 -21 1 -21 1 -2 15 27 21 53 20 36
0z"/>
<path d="M356 5275 c-3 -9 0 -15 9 -15 8 0 15 7 15 15 0 8 -4 15 -9 15 -5 0
-11 -7 -15 -15z"/>
<path d="M190 5184 c0 -8 5 -12 10 -9 6 4 8 11 5 16 -9 14 -15 11 -15 -7z"/>
<path d="M1282 5239 c2 -7 10 -15 17 -17 8 -3 12 1 9 9 -2 7 -10 15 -17 17 -8
3 -12 -1 -9 -9z"/>
<path d="M976 4420 c-24 -8 -11 -16 29 -17 17 -1 23 1 15 4 -8 3 -17 9 -20 13
-3 4 -14 4 -24 0z"/>
<path d="M883 4357 c5 -15 59 -16 64 -1 2 6 -11 11 -32 12 -25 1 -35 -3 -32
-11z"/>
<path d="M2240 4341 c0 -5 7 -12 16 -15 24 -9 28 -7 14 9 -14 17 -30 20 -30 6z"/>
<path d="M2340 4188 c0 -9 9 -26 21 -39 l20 -24 -13 25 c-7 14 -12 28 -13 32
0 14 -15 20 -15 6z"/>
<path d="M1327 4204 c-4 -4 -7 -14 -7 -23 0 -11 3 -12 11 -4 6 6 10 16 7 23
-2 6 -7 8 -11 4z"/>
<path d="M3540 3646 c0 -8 5 -18 10 -21 6 -3 10 3 10 14 0 12 -4 21 -10 21 -5
0 -10 -6 -10 -14z"/>
<path d="M3594 3398 c1 -24 5 -34 14 -31 16 7 15 25 -1 47 -12 17 -14 15 -13
-16z"/>
<path d="M3725 3290 c3 -5 -4 -23 -16 -40 -13 -16 -21 -32 -18 -34 7 -7 47 30
49 45 4 25 0 39 -11 39 -5 0 -7 -4 -4 -10z"/>
<path d="M3605 3270 c-3 -5 -1 -10 4 -10 6 0 11 5 11 10 0 6 -2 10 -4 10 -3 0
-8 -4 -11 -10z"/>
<path d="M3748 3237 c-9 -7 -26 -19 -37 -27 -26 -18 -27 -36 -2 -43 14 -3 21
2 25 19 4 13 11 24 16 24 5 0 14 9 20 20 12 22 3 25 -22 7z"/>
<path d="M3487 2884 c-4 -4 -7 -17 -7 -28 1 -19 1 -20 11 -3 11 19 8 43 -4 31z"/>
<path d="M1082 2635 c0 -16 2 -22 5 -12 2 9 2 23 0 30 -3 6 -5 -1 -5 -18z"/>
<path d="M4356 2052 c-3 -6 -1 -14 5 -17 15 -10 25 3 12 16 -7 7 -13 7 -17 1z"/>
<path d="M3267 1983 c-4 -3 -7 -11 -7 -17 0 -6 5 -5 12 2 6 6 9 14 7 17 -3 3
-9 2 -12 -2z"/>
<path d="M5400 881 c0 -13 29 -35 37 -28 7 8 -15 37 -28 37 -5 0 -9 -4 -9 -9z"/>
<path d="M801 5724 c0 -11 3 -14 6 -6 3 7 2 16 -1 19 -3 4 -6 -2 -5 -13z"/>
<path d="M1316 5679 c3 -6 0 -15 -7 -20 -8 -5 -9 -9 -4 -9 19 0 38 18 31 29
-4 6 -12 11 -17 11 -6 0 -7 -5 -3 -11z"/>
<path d="M500 5635 c1 -26 2 -28 11 -12 8 14 8 22 0 30 -8 8 -11 3 -11 -18z"/>
<path d="M1339 5648 c-6 -16 -6 -58 -1 -58 31 1 42 48 15 58 -7 2 -14 2 -14 0z"/>
<path d="M1409 5627 c-13 -29 -4 -51 12 -27 6 10 7 4 3 -20 -5 -33 -5 -34 10
-16 20 24 20 46 2 71 -14 19 -15 19 -27 -8z"/>
<path d="M1506 5612 c-9 -11 -18 -36 -20 -58 -2 -21 -7 -47 -11 -56 -10 -26
16 -23 40 4 22 26 31 108 12 108 -7 0 -6 4 3 10 8 5 10 10 4 10 -6 0 -18 -8
-28 -18z"/>
<path d="M761 5594 c0 -11 3 -14 6 -6 3 7 2 16 -1 19 -3 4 -6 -2 -5 -13z"/>
<path d="M709 5598 c-6 -23 -2 -57 6 -55 12 4 16 46 4 53 -5 3 -9 4 -10 2z"/>
<path d="M1465 5590 c3 -5 8 -10 11 -10 2 0 4 5 4 10 0 6 -5 10 -11 10 -5 0
-7 -4 -4 -10z"/>
<path d="M820 5569 c0 -24 23 -21 28 4 2 10 -3 17 -12 17 -10 0 -16 -9 -16
-21z"/>
<path d="M1614 5579 c-3 -6 -17 -9 -30 -6 -29 5 -33 -13 -5 -20 11 -3 22 -12
26 -20 4 -12 3 -13 -8 -5 -16 14 -28 6 -20 -14 3 -9 -1 -14 -12 -14 -9 0 -13
-5 -10 -10 5 -8 12 -7 23 2 12 10 16 10 19 1 8 -22 30 -14 35 11 3 15 0 27 -8
30 -19 7 -18 36 1 36 8 0 15 5 15 10 0 13 -17 13 -26 -1z"/>
<path d="M650 5570 c0 -5 5 -10 10 -10 6 0 10 5 10 10 0 6 -4 10 -10 10 -5 0
-10 -4 -10 -10z"/>
<path d="M525 5549 c-4 -6 -4 -13 -1 -16 8 -8 36 5 36 17 0 13 -27 13 -35 -1z"/>
<path d="M570 5530 c0 -5 5 -10 10 -10 6 0 10 5 10 10 0 6 -4 10 -10 10 -5 0
-10 -4 -10 -10z"/>
<path d="M607 5496 c-32 -26 -35 -46 -6 -46 11 0 17 5 14 10 -4 6 4 19 16 29
12 10 18 20 13 23 -5 4 -21 -4 -37 -16z"/>
<path d="M545 5500 c-3 -5 -2 -10 4 -10 5 0 13 5 16 10 3 6 2 10 -4 10 -5 0
-13 -4 -16 -10z"/>
<path d="M1690 5484 c0 -8 5 -12 10 -9 6 3 10 10 10 16 0 5 -4 9 -10 9 -5 0
-10 -7 -10 -16z"/>
<path d="M1730 5450 c20 -13 33 -13 25 0 -3 6 -14 10 -23 10 -15 0 -15 -2 -2
-10z"/>
<path d="M1800 5405 c-7 -8 -8 -15 -2 -15 5 0 15 7 22 15 7 8 8 15 2 15 -5 0
-15 -7 -22 -15z"/>
<path d="M70 5283 c-21 -27 -24 -64 -5 -70 6 -1 11 11 11 28 1 18 8 36 18 41
9 5 16 13 16 18 0 18 -18 10 -40 -17z"/>
<path d="M1155 5290 c-3 -5 1 -10 10 -10 9 0 13 5 10 10 -3 6 -8 10 -10 10 -2
0 -7 -4 -10 -10z"/>
<path d="M2225 5229 c-4 -6 -5 -13 -2 -16 7 -7 27 6 27 18 0 12 -17 12 -25 -2z"/>
<path d="M2256 5201 c-4 -7 -5 -15 -2 -18 9 -9 19 4 14 18 -4 11 -6 11 -12 0z"/>
<path d="M2297 5199 c7 -7 15 -10 18 -7 3 3 -2 9 -12 12 -14 6 -15 5 -6 -5z"/>
<path d="M2300 5154 c-14 -7 -29 -15 -34 -17 -5 -2 -6 -8 -2 -15 5 -8 18 -4
46 15 22 14 40 27 40 29 0 8 -26 2 -50 -12z"/>
<path d="M2370 5043 c-17 -7 -39 -33 -40 -47 0 -11 59 1 77 15 10 9 10 15 2
25 -12 15 -16 16 -39 7z"/>
<path d="M2067 4982 c-18 -20 -22 -42 -9 -42 12 0 42 34 42 48 0 17 -15 15
-33 -6z"/>
<path d="M2290 4990 c0 -5 5 -10 10 -10 6 0 10 5 10 10 0 6 -4 10 -10 10 -5 0
-10 -4 -10 -10z"/>
<path d="M25 4970 c3 -5 8 -10 11 -10 2 0 4 5 4 10 0 6 -5 10 -11 10 -5 0 -7
-4 -4 -10z"/>
<path d="M2252 4939 c-26 -10 -45 -36 -32 -44 5 -3 10 -2 10 4 0 5 18 12 39
16 22 3 47 13 58 21 16 12 15 13 -20 11 -21 -1 -46 -5 -55 -8z"/>
<path d="M2285 4890 c-19 -7 -19 -7 2 -18 28 -15 33 -15 33 2 0 20 -11 25 -35
16z"/>
<path d="M2214 4865 c-4 -8 -3 -23 1 -32 6 -16 8 -15 20 7 8 14 14 28 15 33 0
14 -31 7 -36 -8z"/>
<path d="M2010 4861 c0 -12 29 -23 41 -15 5 3 7 10 4 15 -8 12 -45 12 -45 0z"/>
<path d="M2119 4850 c-27 -22 -13 -26 25 -9 14 7 23 16 20 20 -8 14 -20 11
-45 -11z"/>
<path d="M1968 4808 c-21 -6 -38 -14 -38 -19 0 -12 17 -11 25 1 3 6 18 10 33
10 15 0 34 5 42 10 12 8 11 10 -5 9 -11 -1 -37 -6 -57 -11z"/>
<path d="M2138 4809 c-25 -14 -23 -49 2 -49 13 0 18 5 14 15 -4 8 1 17 10 21
19 7 21 24 4 24 -7 0 -21 -5 -30 -11z"/>
<path d="M1870 4760 c0 -5 9 -10 20 -10 11 0 20 5 20 10 0 6 -9 10 -20 10 -11
0 -20 -4 -20 -10z"/>
<path d="M2554 4635 c22 -17 46 -20 46 -6 0 5 -10 11 -22 15 -37 9 -44 6 -24
-9z"/>
<path d="M2550 4600 c0 -5 7 -10 15 -10 8 0 15 5 15 10 0 6 -7 10 -15 10 -8 0
-15 -4 -15 -10z"/>
<path d="M2685 4410 c-3 -5 3 -10 15 -10 12 0 18 5 15 10 -3 6 -10 10 -15 10
-5 0 -12 -4 -15 -10z"/>
<path d="M2700 4350 c0 -5 12 -10 28 -9 24 0 25 1 7 9 -27 12 -35 12 -35 0z"/>
<path d="M2828 4333 c7 -3 16 -2 19 1 4 3 -2 6 -13 5 -11 0 -14 -3 -6 -6z"/>
<path d="M2710 4280 c-8 -5 -11 -12 -7 -16 4 -4 15 0 24 9 18 18 8 23 -17 7z"/>
<path d="M2758 4251 c-23 -23 -23 -31 2 -31 11 0 24 8 27 18 4 9 11 20 17 24
6 5 2 8 -9 7 -11 0 -28 -8 -37 -18z"/>
<path d="M2825 4250 c3 -5 11 -10 16 -10 6 0 7 5 4 10 -3 6 -11 10 -16 10 -6
0 -7 -4 -4 -10z"/>
<path d="M2786 4212 c-2 -4 4 -13 14 -20 20 -12 36 0 25 18 -7 12 -32 13 -39
2z"/>
<path d="M2840 4210 c0 -5 7 -10 15 -10 8 0 15 5 15 10 0 6 -7 10 -15 10 -8 0
-15 -4 -15 -10z"/>
<path d="M683 3933 c-19 -7 -15 -23 5 -23 10 0 19 7 19 15 0 16 -4 17 -24 8z"/>
<path d="M1113 3759 c-18 -28 -33 -56 -33 -63 0 -6 -14 -26 -30 -45 -16 -18
-27 -38 -23 -44 10 -17 63 50 63 80 0 16 10 36 23 48 20 19 47 58 47 70 0 17
-19 -2 -47 -46z"/>
<path d="M760 3792 c0 -12 19 -26 26 -19 2 2 -2 10 -11 17 -9 8 -15 8 -15 2z"/>
<path d="M825 3780 c-3 -5 -1 -10 4 -10 6 0 11 5 11 10 0 6 -2 10 -4 10 -3 0
-8 -4 -11 -10z"/>
<path d="M3850 3785 c0 -8 73 -75 82 -75 4 0 5 -7 2 -14 -4 -10 6 -20 29 -29
19 -8 38 -20 41 -26 12 -19 24 -12 24 14 0 26 -60 86 -118 118 -30 16 -60 22
-60 12z"/>
<path d="M4055 3660 c-3 -5 -1 -10 4 -10 6 0 11 5 11 10 0 6 -2 10 -4 10 -3 0
-8 -4 -11 -10z"/>
<path d="M4405 3660 c-3 -5 -2 -10 4 -10 5 0 13 5 16 10 3 6 2 10 -4 10 -5 0
-13 -4 -16 -10z"/>
<path d="M4425 3639 c-4 -6 -5 -11 -4 -13 9 -5 134 -35 136 -32 2 1 -14 11
-34 21 -21 10 -46 22 -55 26 -23 12 -35 11 -43 -2z"/>
<path d="M4320 3615 c-7 -9 -11 -17 -8 -20 2 -2 12 4 21 15 9 11 13 20 8 20
-5 0 -14 -7 -21 -15z"/>
<path d="M4260 3600 c0 -5 4 -10 9 -10 6 0 13 5 16 10 3 6 -1 10 -9 10 -9 0
-16 -4 -16 -10z"/>
<path d="M880 3564 c0 -8 5 -12 10 -9 6 3 10 10 10 16 0 5 -4 9 -10 9 -5 0
-10 -7 -10 -16z"/>
<path d="M4266 3571 c-3 -5 1 -11 9 -15 8 -3 15 -1 15 4 0 13 -18 22 -24 11z"/>
<path d="M815 3540 c-16 -16 -26 -32 -24 -35 3 -3 18 9 34 25 16 16 26 32 24
35 -3 3 -18 -9 -34 -25z"/>
<path d="M910 3560 c0 -5 5 -10 10 -10 6 0 10 5 10 10 0 6 -4 10 -10 10 -5 0
-10 -4 -10 -10z"/>
<path d="M3746 3549 c9 -10 14 -22 11 -26 -3 -5 3 -20 14 -33 13 -18 19 -20
19 -9 0 8 -5 20 -12 27 -8 8 -8 15 2 27 16 19 10 26 -24 29 -25 3 -26 2 -10
-15z"/>
<path d="M4596 3555 c8 -20 75 -58 85 -48 4 4 -14 20 -41 35 -32 18 -47 23
-44 13z"/>
<path d="M4310 3551 c0 -5 7 -12 16 -15 24 -9 28 -7 14 9 -14 17 -30 20 -30 6z"/>
<path d="M823 3489 c-21 -22 -49 -45 -63 -50 -20 -8 -22 -12 -10 -19 11 -7 28
3 64 40 27 28 53 50 57 50 5 0 9 5 9 10 0 20 -21 9 -57 -31z"/>
<path d="M4552 3478 c2 -6 13 -15 25 -19 17 -6 20 -4 16 12 -3 11 -14 19 -25
19 -11 0 -18 -5 -16 -12z"/>
<path d="M4626 3465 c21 -16 44 -19 44 -6 0 5 -10 11 -22 15 -37 9 -43 7 -22
-9z"/>
<path d="M4738 3464 c13 -9 26 -13 30 -9 8 8 -17 25 -38 25 -9 0 -6 -6 8 -16z"/>
<path d="M4090 3447 c0 -15 49 -62 56 -54 8 7 -24 54 -42 61 -8 3 -14 0 -14
-7z"/>
<path d="M3944 3423 c4 -9 2 -20 -5 -23 -17 -11 -2 -44 28 -57 14 -7 29 -11
31 -8 3 2 -3 7 -12 11 -9 3 -16 12 -16 20 0 8 -4 14 -10 14 -5 0 -10 5 -10 10
0 6 11 10 25 10 33 0 32 18 -1 30 -34 13 -37 13 -30 -7z"/>
<path d="M4650 3425 c0 -8 17 -19 40 -26 22 -7 40 -16 40 -21 0 -4 7 -8 15 -8
8 0 24 -4 35 -10 11 -5 29 -14 40 -20 40 -20 44 -9 5 14 -22 13 -43 22 -47 20
-5 -3 -8 0 -8 5 0 6 -7 11 -15 11 -8 0 -15 7 -15 16 0 10 -5 14 -15 10 -9 -3
-18 0 -21 7 -7 18 -54 20 -54 2z"/>
<path d="M4320 3415 c0 -12 88 -91 98 -87 6 2 22 -7 34 -21 13 -13 36 -32 51
-42 27 -17 29 -17 45 0 16 17 16 17 0 12 -23 -8 -24 11 -1 20 10 4 23 -2 35
-16 10 -13 18 -19 18 -13 0 15 -71 72 -90 72 -9 0 -6 -6 9 -16 22 -16 22 -17
5 -27 -13 -7 -19 -7 -22 1 -2 7 -9 12 -16 12 -7 0 -22 11 -34 25 -24 27 -42
32 -42 13 0 -7 -9 -1 -20 13 -19 25 -70 65 -70 54z"/>
<path d="M4000 3381 c0 -8 44 -41 55 -41 15 0 1 17 -25 32 -17 9 -30 13 -30 9z"/>
<path d="M4450 3383 c0 -5 9 -18 20 -28 11 -10 20 -14 20 -8 0 5 -9 18 -20 28
-11 10 -20 14 -20 8z"/>
<path d="M4100 3360 c0 -11 41 -35 54 -32 4 2 23 -12 41 -31 17 -18 37 -31 43
-29 6 2 8 -5 6 -16 -4 -13 2 -22 21 -30 38 -18 41 -15 15 13 -31 33 -17 32 41
-6 54 -34 75 -56 65 -67 -4 -4 -16 4 -27 17 -10 13 -19 19 -19 14 0 -15 73
-87 135 -133 33 -24 66 -50 73 -57 13 -13 32 -18 32 -8 0 5 -40 53 -75 89 -11
12 -19 26 -17 32 1 6 -9 21 -23 34 -14 13 -25 18 -25 11 0 -6 6 -14 14 -17 17
-6 30 -34 16 -34 -16 0 -70 52 -64 61 3 5 10 7 15 4 5 -4 9 -2 9 3 0 11 -71
68 -82 65 -4 -2 -5 4 -2 12 4 9 -4 19 -23 26 -15 7 -44 19 -63 27 -19 9 -40
15 -47 14 -6 -1 -14 2 -18 8 -3 5 -17 10 -29 10 -13 0 -29 7 -36 15 -14 17
-30 20 -30 5z"/>
<path d="M4697 3354 c-11 -11 5 -34 34 -48 16 -8 30 -11 32 -8 5 9 -59 63 -66
56z"/>
<path d="M758 3317 c-4 -18 -1 -24 9 -20 15 6 16 13 4 31 -6 10 -10 7 -13 -11z"/>
<path d="M4020 3320 c0 -10 26 -20 34 -13 11 12 6 19 -14 20 -11 1 -20 -2 -20
-7z"/>
<path d="M4611 3312 c13 -10 37 -26 53 -36 27 -17 29 -17 23 -1 -4 9 -7 19 -7
21 0 2 -8 4 -17 4 -10 0 -27 7 -37 15 -11 8 -24 15 -29 15 -5 0 1 -8 14 -18z"/>
<path d="M4785 3320 c3 -5 11 -10 16 -10 6 0 7 5 4 10 -3 6 -11 10 -16 10 -6
0 -7 -4 -4 -10z"/>
<path d="M4350 3301 c0 -10 43 -57 74 -81 18 -14 19 -14 7 8 -7 13 -19 26 -27
29 -9 3 -13 12 -9 21 6 16 -10 32 -32 32 -7 0 -13 -4 -13 -9z"/>
<path d="M3915 3290 c3 -5 8 -10 11 -10 2 0 4 5 4 10 0 6 -5 10 -11 10 -5 0
-7 -4 -4 -10z"/>
<path d="M3970 3290 c0 -5 7 -10 15 -10 8 0 15 -4 15 -9 0 -5 10 -11 23 -14
19 -5 18 -3 -8 18 -32 27 -45 31 -45 15z"/>
<path d="M4620 3245 c-16 -19 -1 -19 24 0 16 12 17 15 4 15 -8 0 -21 -7 -28
-15z"/>
<path d="M4740 3248 c-13 -5 -34 -7 -47 -3 -31 7 -37 -10 -7 -24 33 -15 44
-14 44 4 0 16 15 20 24 7 3 -5 -4 -15 -15 -22 -23 -17 -25 -35 -3 -26 17 7 84
-29 84 -45 0 -5 7 -9 16 -9 9 0 12 -5 8 -12 -5 -8 2 -9 24 -5 19 4 32 2 32 -3
0 -6 8 -10 17 -10 15 0 15 2 3 14 -8 8 -31 22 -50 33 -56 29 -91 60 -98 86 -6
21 -10 23 -32 15z"/>
<path d="M4005 3230 c-3 -5 -1 -10 4 -10 6 0 11 5 11 10 0 6 -2 10 -4 10 -3 0
-8 -4 -11 -10z"/>
<path d="M4880 3226 c0 -6 66 -46 76 -46 5 0 -3 11 -18 25 -23 21 -58 34 -58
21z"/>
<path d="M4635 3210 c-8 -12 2 -30 17 -30 7 0 7 4 -1 13 -6 8 -8 17 -4 20 3 4
4 7 0 7 -3 0 -9 -4 -12 -10z"/>
<path d="M4220 3151 c0 -4 10 -19 23 -33 13 -14 21 -31 19 -39 -2 -8 2 -6 8 4
6 9 15 15 20 12 4 -3 10 2 13 10 4 8 -2 16 -13 20 -10 3 -21 12 -24 20 -6 16
-46 21 -46 6z"/>
<path d="M4345 3130 c3 -5 8 -10 11 -10 2 0 4 5 4 10 0 6 -5 10 -11 10 -5 0
-7 -4 -4 -10z"/>
<path d="M4557 3065 c17 -23 33 -32 33 -19 0 7 -40 44 -47 44 -2 0 4 -11 14
-25z"/>
<path d="M4312 3043 c-9 -13 -14 -15 -18 -5 -3 6 -10 12 -16 12 -11 0 -2 -51
11 -60 5 -3 13 -21 20 -40 10 -31 86 -110 106 -110 3 0 -4 18 -16 40 -13 22
-26 40 -31 40 -4 0 -8 7 -8 16 0 10 -6 14 -14 11 -10 -4 -13 -1 -9 9 3 8 -3
24 -13 35 -14 15 -15 22 -5 32 10 9 15 8 27 -7 14 -19 44 -31 44 -17 0 5 -58
61 -64 61 0 0 -7 -8 -14 -17z"/>
<path d="M4410 3055 c0 -3 10 -19 22 -35 18 -24 24 -27 36 -17 13 10 14 8 8
-11 -12 -38 52 -132 90 -132 5 0 -10 19 -33 43 -37 39 -60 77 -46 77 3 0 23
-20 45 -45 22 -25 46 -45 54 -45 17 0 18 16 1 27 -7 4 -20 20 -30 36 -10 15
-23 27 -30 27 -6 0 -22 10 -33 23 -24 24 -84 62 -84 52z"/>
<path d="M4851 2998 c14 -19 25 -26 27 -19 2 7 -5 21 -16 32 -32 29 -36 23
-11 -13z"/>
<path d="M795 3000 c-3 -5 -1 -10 4 -10 6 0 11 5 11 10 0 6 -2 10 -4 10 -3 0
-8 -4 -11 -10z"/>
<path d="M4406 2996 c7 -19 38 -22 32 -3 -3 6 -12 13 -21 15 -12 2 -15 -1 -11
-12z"/>
<path d="M4770 2997 c0 -2 14 -16 30 -32 23 -22 30 -25 30 -12 0 9 -6 17 -14
17 -8 0 -16 7 -20 15 -4 12 -26 22 -26 12z"/>
<path d="M4890 2970 c0 -18 123 -130 142 -130 10 0 23 -9 30 -20 7 -11 17 -20
22 -20 5 0 15 -8 22 -17 7 -10 14 -13 14 -7 0 6 -9 19 -20 29 -11 10 -20 23
-20 30 0 20 -48 65 -63 59 -8 -3 -25 7 -38 23 -40 48 -89 76 -89 53z"/>
<path d="M4381 2953 c19 -25 64 -70 75 -74 5 -2 24 -23 43 -47 24 -31 30 -46
23 -55 -16 -19 2 -84 31 -110 46 -42 67 -57 77 -57 12 0 13 12 3 26 -5 5 5 -4
20 -21 15 -16 32 -30 36 -30 5 0 13 -3 17 -7 4 -5 2 -8 -5 -8 -8 0 -4 -11 9
-30 23 -33 17 -41 -9 -12 -20 23 -86 72 -95 72 -8 0 45 -61 107 -122 21 -21
44 -38 52 -38 18 0 20 16 3 23 -10 4 -9 8 2 16 12 9 11 11 -10 11 -23 0 -23 1
-7 17 16 16 18 15 44 -8 15 -13 10 -3 -12 22 -23 26 -46 44 -55 41 -12 -3 -12
-2 -2 6 18 12 3 40 -50 97 -58 61 -98 109 -98 117 0 4 -9 9 -19 13 -11 3 -25
21 -31 40 -6 18 -27 51 -46 71 -19 21 -34 42 -34 46 0 4 -7 8 -15 8 -8 0 -15
-6 -15 -12 0 -9 -3 -9 -8 -2 -4 6 -16 14 -26 17 -17 7 -17 6 -5 -10z m199
-230 c33 -52 40 -77 12 -47 -29 31 -52 67 -52 81 0 22 10 14 40 -34z m175
-193 c3 -5 1 -10 -4 -10 -6 0 -11 5 -11 10 0 6 2 10 4 10 3 0 8 -4 11 -10z"/>
<path d="M4767 2943 c8 -23 105 -117 144 -140 16 -10 29 -25 29 -35 0 -10 4
-18 8 -18 5 0 19 -20 32 -45 13 -24 34 -52 46 -60 31 -20 30 -35 -2 -35 -20 0
-25 4 -20 16 4 10 -3 26 -19 42 -14 13 -25 31 -25 38 0 7 -9 18 -20 24 -27 15
-25 4 8 -39 15 -20 32 -49 37 -66 8 -23 16 -30 36 -30 27 0 99 -53 99 -73 0
-14 58 -55 68 -48 9 5 42 -28 42 -43 0 -14 36 -41 54 -41 13 0 10 7 -13 33
-16 17 -38 41 -48 53 -10 11 -24 19 -30 17 -7 -3 -13 2 -13 11 0 9 -4 16 -10
16 -15 0 -12 16 6 34 18 18 11 21 -17 6 -15 -9 -23 -7 -36 6 -16 16 -16 16 5
10 14 -5 22 -3 22 4 0 19 -84 129 -98 130 -7 0 -11 4 -8 9 3 5 -1 11 -9 15 -8
3 -15 13 -15 22 0 12 -7 15 -23 12 -17 -3 -30 5 -52 33 -17 21 -37 38 -45 39
-17 1 -60 34 -60 47 -1 9 -47 55 -67 67 -9 5 -11 2 -6 -11z m363 -344 c0 -14
-17 -10 -23 5 -4 10 -1 13 9 9 7 -3 14 -9 14 -14z m-44 -4 c10 -8 14 -15 8
-15 -5 0 -19 7 -30 15 -10 8 -14 15 -8 15 5 0 19 -7 30 -15z"/>
<path d="M4610 2895 c0 -8 53 -54 63 -55 14 0 7 19 -15 40 -20 19 -48 27 -48
15z"/>
<path d="M4462 2810 c19 -38 48 -54 48 -27 0 13 -50 67 -62 67 -3 0 3 -18 14
-40z"/>
<path d="M4601 2836 c-12 -15 1 -32 17 -22 5 3 14 -4 22 -14 8 -10 17 -17 20
-15 14 9 43 -36 44 -67 1 -24 11 -43 39 -70 21 -21 40 -38 43 -38 13 0 29 -27
32 -54 2 -17 11 -37 20 -45 10 -9 32 -33 50 -54 17 -21 32 -35 32 -31 0 3 7 1
15 -6 9 -7 19 -10 22 -6 4 4 3 10 -3 14 -15 10 -25 42 -14 42 6 0 10 -6 10
-14 0 -8 16 -24 35 -36 38 -23 60 -54 50 -70 -10 -16 -21 -12 -35 14 -14 28
-43 44 -33 20 7 -18 -4 -18 -24 1 -8 9 -18 14 -21 11 -2 -3 6 -14 19 -25 15
-12 26 -15 30 -9 8 13 21 -10 39 -67 7 -22 18 -47 26 -55 7 -8 18 -28 24 -44
6 -16 13 -26 17 -23 3 3 -2 24 -11 47 -34 84 -3 65 49 -30 42 -77 50 -84 75
-67 18 12 19 15 5 21 -9 3 -13 10 -10 16 3 5 3 15 -1 22 -5 7 -11 5 -21 -7 -7
-11 -13 -14 -13 -8 0 7 5 15 10 18 15 9 12 25 -5 25 -10 0 -15 10 -15 34 0 22
-10 46 -30 71 -16 21 -30 43 -30 49 0 7 -21 29 -46 50 -25 21 -43 44 -40 51 2
7 -8 25 -24 40 -28 27 -50 27 -50 -1 0 -8 -5 -12 -11 -9 -7 5 -5 13 5 24 22
24 20 34 -4 19 -11 -7 -20 -22 -20 -33 0 -16 -3 -15 -15 9 -8 15 -15 35 -15
42 0 8 -3 14 -7 14 -5 0 -16 14 -25 31 -10 17 -22 28 -27 24 -11 -6 -34 29
-25 38 13 12 -97 157 -120 157 -5 0 -17 7 -26 15 -15 13 -19 14 -29 1z m529
-576 c0 -5 -2 -10 -4 -10 -3 0 -8 5 -11 10 -3 6 -1 10 4 10 6 0 11 -4 11 -10z"/>
<path d="M5106 2826 c6 -17 54 -39 54 -26 0 6 -7 10 -15 10 -8 0 -15 4 -15 9
0 5 -7 11 -14 14 -10 4 -13 1 -10 -7z"/>
<path d="M4555 2820 c3 -5 8 -10 11 -10 2 0 4 5 4 10 0 6 -5 10 -11 10 -5 0
-7 -4 -4 -10z"/>
<path d="M4840 2792 c0 -5 9 -17 19 -26 15 -13 20 -14 23 -4 3 7 -2 18 -11 25
-19 15 -31 16 -31 5z"/>
<path d="M4620 2776 c0 -2 6 -11 13 -18 6 -8 17 -22 23 -33 16 -29 35 -32 22
-3 -10 21 -58 66 -58 54z"/>
<path d="M882 2738 c-7 -7 -12 -26 -12 -42 1 -30 1 -30 15 9 15 43 15 51 -3
33z"/>
<path d="M4796 2686 c3 -9 11 -16 16 -16 13 0 5 23 -10 28 -7 2 -10 -2 -6 -12z"/>
<path d="M4865 2670 c3 -5 8 -10 11 -10 2 0 4 5 4 10 0 6 -5 10 -11 10 -5 0
-7 -4 -4 -10z"/>
<path d="M4830 2650 c1 -18 70 -100 70 -84 0 6 -7 18 -17 25 -9 8 -24 28 -35
44 -10 17 -18 23 -18 15z"/>
<path d="M911 2634 c0 -11 3 -14 6 -6 3 7 2 16 -1 19 -3 4 -6 -2 -5 -13z"/>
<path d="M5240 2630 c0 -5 5 -10 11 -10 5 0 7 5 4 10 -3 6 -8 10 -11 10 -2 0
-4 -4 -4 -10z"/>
<path d="M935 2530 c-3 -5 -1 -10 4 -10 6 0 11 5 11 10 0 6 -2 10 -4 10 -3 0
-8 -4 -11 -10z"/>
<path d="M5220 2529 c0 -5 5 -7 10 -4 6 3 10 8 10 11 0 2 -4 4 -10 4 -5 0 -10
-5 -10 -11z"/>
<path d="M4770 2403 c0 -5 13 -24 30 -43 28 -33 44 -23 17 10 -19 24 -47 43
-47 33z"/>
<path d="M4585 2373 c4 -10 10 -28 12 -40 3 -14 13 -23 23 -23 10 0 20 -9 23
-20 3 -11 9 -20 14 -20 8 0 9 10 4 52 -1 3 -13 20 -27 37 -28 34 -61 43 -49
14z"/>
<path d="M5306 2375 c-3 -9 1 -27 10 -41 20 -29 28 -31 19 -4 -6 18 -4 19 20
10 17 -7 24 -7 20 0 -3 6 -11 10 -17 10 -6 0 -19 9 -28 20 -15 18 -19 18 -24
5z"/>
<path d="M4950 2317 c20 -23 22 -30 10 -37 -8 -5 -11 -12 -8 -15 9 -10 28 3
28 19 0 7 -12 23 -27 37 l-28 24 25 -28z"/>
<path d="M5350 2290 c0 -5 5 -10 10 -10 6 0 10 5 10 10 0 6 -4 10 -10 10 -5 0
-10 -4 -10 -10z"/>
<path d="M5192 2231 c20 -40 38 -54 38 -28 0 7 -13 26 -29 41 l-30 29 21 -42z"/>
<path d="M5380 2213 c0 -5 6 -15 12 -21 10 -10 10 -15 -2 -22 -13 -8 -12 -11
5 -24 14 -10 22 -11 27 -3 4 7 18 0 37 -21 38 -39 49 -41 26 -5 -28 42 -105
113 -105 96z m45 -53 c-3 -5 -10 -10 -16 -10 -5 0 -9 5 -9 10 0 6 7 10 16 10
8 0 12 -4 9 -10z"/>
<path d="M4997 2175 c23 -32 34 -32 20 0 -7 14 -18 25 -25 25 -9 0 -8 -7 5
-25z"/>
<path d="M5160 2052 c0 -4 7 -18 16 -30 8 -12 12 -22 7 -22 -4 0 -1 -5 7 -10
18 -11 41 -14 24 -2 -5 4 -16 22 -23 40 -12 29 -31 44 -31 24z"/>
<path d="M5235 2010 c3 -5 8 -10 11 -10 2 0 4 5 4 10 0 6 -5 10 -11 10 -5 0
-7 -4 -4 -10z"/>
<path d="M5191 1953 c7 -12 15 -20 18 -17 3 2 -3 12 -13 22 -17 16 -18 16 -5
-5z"/>
<path d="M5230 1947 c0 -9 41 -50 45 -45 6 6 -24 48 -36 48 -5 0 -9 -2 -9 -3z"/>
<path d="M5460 1920 c0 -5 5 -10 11 -10 5 0 7 5 4 10 -3 6 -8 10 -11 10 -2 0
-4 -4 -4 -10z"/>
<path d="M4843 1783 c-15 -6 -17 -33 -3 -33 5 0 14 9 20 20 11 20 6 23 -17 13z"/>
<path d="M5455 1737 c27 -30 53 -53 58 -50 4 3 1 13 -7 22 -9 10 -16 22 -16
27 0 8 -45 39 -74 53 -6 2 12 -21 39 -52z"/>
<path d="M5500 1630 c0 -5 10 -15 23 -21 22 -12 22 -12 3 10 -21 23 -26 26
-26 11z"/>
<path d="M5430 1594 c0 -8 5 -12 10 -9 6 4 8 11 5 16 -9 14 -15 11 -15 -7z"/>
<path d="M5446 1572 c-3 -5 4 -15 14 -22 16 -11 17 -17 7 -29 -10 -12 -9 -14
6 -8 9 3 17 2 17 -3 0 -15 17 -12 23 4 4 10 1 13 -8 10 -7 -3 -16 3 -20 15 -3
12 -11 21 -16 21 -6 0 -7 5 -4 10 3 6 2 10 -4 10 -5 0 -12 -4 -15 -8z"/>
<path d="M5400 1510 c0 -5 5 -10 10 -10 6 0 10 5 10 10 0 6 -4 10 -10 10 -5 0
-10 -4 -10 -10z"/>
<path d="M5540 1511 c0 -5 5 -13 10 -16 6 -3 10 -2 10 4 0 5 -4 13 -10 16 -5
3 -10 2 -10 -4z"/>
<path d="M5510 1405 c7 -9 15 -13 17 -11 7 7 -7 26 -19 26 -6 0 -6 -6 2 -15z"/>
<path d="M5490 1309 c0 -5 5 -7 10 -4 6 3 10 8 10 11 0 2 -4 4 -10 4 -5 0 -10
-5 -10 -11z"/>
<path d="M5470 1174 c0 -4 10 -24 22 -45 26 -47 18 -61 -15 -25 -26 28 -42 34
-34 12 3 -7 -1 -23 -9 -35 -14 -19 -14 -23 0 -36 8 -9 18 -31 22 -49 4 -24 13
-36 27 -40 13 -3 34 -27 51 -58 36 -66 47 -47 12 22 -27 55 -32 80 -16 80 6 0
10 -9 10 -20 0 -11 5 -20 10 -20 6 0 10 -7 10 -15 0 -13 2 -14 14 -3 10 9 11
17 4 26 -6 7 -12 30 -14 51 -4 50 -94 198 -94 155z m70 -138 c0 -3 -4 -8 -10
-11 -5 -3 -10 -1 -10 4 0 6 5 11 10 11 6 0 10 -2 10 -4z"/>
<path d="M5550 1125 c0 -5 5 -17 10 -25 5 -8 10 -10 10 -5 0 6 -5 17 -10 25
-5 8 -10 11 -10 5z"/>
<path d="M5588 1055 c-5 -9 34 -65 45 -65 2 0 4 14 5 31 1 24 -2 29 -11 20
-16 -16 -25 -14 -29 7 -2 9 -6 12 -10 7z"/>
</g>
</svg>
